<svg width="114" height="141" viewBox="0 0 114 141" fill="none" xmlns="http://www.w3.org/2000/svg">
<g clip-path="url(#clip0_5369_6786)">
<path d="M108.721 17.2903C108.721 17.2342 108.715 17.0971 108.684 16.9225C108.265 14.3174 104.293 12.8964 102.436 12.2793C88.1003 7.51151 79.2628 6.58287 79.2628 6.58287C75.6852 6.12167 71.7699 5.72902 67.5607 5.47349C59.7489 4.99982 52.6438 5.09331 46.4331 5.47349C42.2239 5.72902 38.3086 6.12167 34.731 6.58287C34.731 6.58287 25.8935 7.51151 11.5583 12.2793C9.7007 12.8964 5.72912 14.3174 5.31007 16.9225C5.2788 17.0971 5.2788 17.2404 5.27254 17.2903C4.22179 51.8618 5.27254 63.3856 5.27254 63.3856C6.89245 78.8671 6.87368 87.5427 10.4512 96.505C13.1156 103.18 22.4285 122.482 54.9642 135.452C56.2651 135.969 57.7224 135.969 59.0234 135.452C91.559 122.482 100.872 103.174 103.536 96.505C107.12 87.5489 107.101 78.8671 108.715 63.3856C108.715 63.3856 109.76 51.8618 108.715 17.2903H108.721Z" fill="#1D6FD1"/>
<path d="M57.0031 140.5C56.1838 140.5 55.3645 140.344 54.5827 140.039C40.5977 134.56 15.7112 121.852 6.14189 98.3435C3.10222 90.8708 2.45176 83.7657 1.46981 73.0085C1.20087 70.0418 0.894399 66.6763 0.500368 63.0116C0.487859 62.8807 -0.61918 50.3098 0.500368 13.987C0.500368 13.9184 0.506623 13.7377 0.544149 13.5133C1.01949 10.6027 4.86598 9.02593 7.71176 8.09106C23.0852 3.06769 32.7859 2.0331 32.8797 2.02064C37.0639 1.49088 41.3295 1.092 45.5512 0.836467C53.1504 0.381497 60.8559 0.381497 68.4488 0.836467C72.6705 1.08577 76.9361 1.48464 81.1328 2.02064C81.2141 2.02687 90.9085 3.06769 106.282 8.09106C109.134 9.02593 112.981 10.6027 113.45 13.5133C113.487 13.7377 113.493 13.9184 113.493 13.987C114.613 50.3098 113.506 62.8807 113.493 63.0054C113.106 66.6763 112.793 70.0356 112.524 73.0023C111.542 83.7595 110.892 90.8645 107.852 98.3372C98.2888 121.846 73.3961 134.554 59.4111 140.032C58.6293 140.338 57.81 140.494 56.9906 140.494L57.0031 140.5ZM57.0031 1.74641C53.2004 1.74641 49.404 1.85859 45.6263 2.08296C41.4358 2.33226 37.1953 2.73114 33.0235 3.2609C32.9172 3.27336 23.3354 4.30172 8.10579 9.28146C6.64225 9.76136 2.18907 11.2135 1.78253 13.719C1.75751 13.8686 1.75126 13.987 1.75126 14.0306C0.631712 50.2787 1.7325 62.7685 1.74501 62.8932C2.13278 66.5579 2.43925 69.9234 2.71445 72.8963C3.68389 83.5414 4.3281 90.5716 7.29896 97.876C16.6869 120.955 41.2419 133.476 55.0392 138.879C56.3026 139.378 57.7036 139.378 58.967 138.879C72.7644 133.47 97.3194 120.955 106.707 97.876C109.678 90.5716 110.322 83.5414 111.292 72.8963C111.561 69.9234 111.873 66.5579 112.261 62.8869C112.274 62.7748 113.368 50.2475 112.255 14.0306C112.255 13.987 112.255 13.8686 112.224 13.719C111.817 11.2198 107.364 9.76136 105.9 9.28146C90.6709 4.30172 81.0953 3.27336 81.0015 3.2609C76.8173 2.73114 72.5767 2.33226 68.3862 2.08296C64.6148 1.85859 60.8121 1.74641 57.0156 1.74641H57.0031Z" fill="#1D6FD1"/>
<path d="M12.5027 26.7013H25.612V21.8088L12.5027 26.7013Z" fill="#FF9D28"/>
<path d="M25.6121 21.8088V39.1039L31.8102 19.5028L25.6121 21.8088Z" fill="#68C5ED"/>
<path d="M25.612 26.7013H20.6584L25.612 39.0852V26.7013Z" fill="#044D80"/>
<path d="M12.5027 26.7013L21.9344 29.8799L20.6585 26.7013H12.5027Z" fill="#E54747"/>
<path d="M42.5553 34.5356C42.4802 34.6104 42.3614 34.6976 42.1988 34.8036C42.0362 34.9095 41.811 35.0279 41.5483 35.1276C41.2794 35.2336 40.9542 35.3333 40.5539 35.4081C40.1661 35.4829 39.722 35.5265 39.2217 35.5265C38.2585 35.5265 37.4141 35.3645 36.7011 35.0653C35.9881 34.7537 35.4127 34.3237 34.9499 33.7627C34.487 33.2018 34.1493 32.5536 33.9429 31.7995C33.7177 31.0454 33.6177 30.204 33.6177 29.3003C33.6177 28.3966 33.7365 27.5552 33.9742 26.7886C34.2118 26.022 34.5496 25.3551 35.0249 24.7942C35.4878 24.2333 36.0757 23.7908 36.7762 23.4792C37.4767 23.1675 38.3023 23.0055 39.2529 23.0055C39.7158 23.0055 40.1411 23.0491 40.5163 23.1239C40.8854 23.2112 41.2294 23.2984 41.5108 23.4168C41.7923 23.5353 42.0299 23.6537 42.205 23.7721C42.3989 23.8905 42.5303 24.0089 42.6178 24.0837C42.7242 24.171 42.8242 24.2894 42.8993 24.4265C42.9743 24.5636 43.0181 24.707 43.0181 24.8565C43.0181 25.0934 42.9306 25.3302 42.7492 25.567C42.5741 25.8039 42.3802 26.0282 42.155 26.2339C42.0049 26.0843 41.8423 25.941 41.6672 25.7914C41.492 25.6418 41.2794 25.5109 41.0605 25.3925C40.8353 25.2741 40.5851 25.1869 40.3037 25.1121C40.0222 25.0373 39.7095 24.9937 39.353 24.9937C38.7463 24.9937 38.2272 25.1121 37.8082 25.3614C37.3954 25.6107 37.0639 25.9223 36.8137 26.3212C36.5635 26.72 36.3821 27.1626 36.2821 27.6674C36.1757 28.1722 36.1195 28.6895 36.1195 29.2193C36.1195 29.7802 36.1757 30.3099 36.2821 30.8272C36.3884 31.3445 36.576 31.787 36.845 32.1859C37.1139 32.5848 37.4517 32.8964 37.8832 33.1333C38.3148 33.3701 38.8339 33.4885 39.4718 33.4885C39.8158 33.4885 40.1098 33.4449 40.3913 33.3701C40.6727 33.2828 40.9229 33.1769 41.1355 33.0585C41.3607 32.9401 41.5358 32.8092 41.6984 32.6908C41.861 32.5599 41.9924 32.4415 42.0987 32.348C42.1738 32.4352 42.2488 32.5412 42.3489 32.6596C42.4552 32.778 42.5428 32.9089 42.6178 33.0273C42.7054 33.1582 42.7679 33.2953 42.843 33.4262C42.8993 33.5571 42.9306 33.6755 42.9306 33.7814C42.9306 33.9435 42.8993 34.0619 42.843 34.1803C42.7867 34.2863 42.6804 34.4047 42.5616 34.5356H42.5553ZM51.8119 33.1582C51.8119 34.1055 51.9432 34.7973 52.2247 35.2274C51.9995 35.3146 51.8119 35.3769 51.618 35.4019C51.4241 35.433 51.2302 35.458 51.0238 35.458C50.5923 35.458 50.267 35.3707 50.0419 35.2087C49.8167 35.0466 49.6729 34.7973 49.6103 34.4857C49.3414 34.7662 49.0036 35.003 48.5596 35.1962C48.128 35.3894 47.5964 35.4767 46.9709 35.4767C46.6457 35.4767 46.3205 35.433 45.989 35.3458C45.6638 35.2585 45.3635 35.109 45.1009 34.9033C44.8382 34.6976 44.6255 34.4296 44.4504 34.0931C44.2878 33.7503 44.2002 33.3389 44.2002 32.8528C44.2002 32.2482 44.3503 31.7434 44.6443 31.357C44.9382 30.9706 45.3135 30.6777 45.7576 30.4533C46.2016 30.2289 46.6895 30.0856 47.1961 29.9921C47.7152 29.9048 48.1906 29.8612 48.6221 29.83C48.7722 29.8176 48.9036 29.8176 49.0537 29.8176H49.4415V29.4935C49.4415 29.0323 49.3226 28.7082 49.0724 28.5025C48.8223 28.3093 48.422 28.2096 47.8716 28.2096C47.3525 28.2096 46.8896 28.2969 46.4894 28.4589C46.0891 28.6209 45.6888 28.8142 45.301 29.0323C45.1384 28.8266 44.9883 28.6023 44.9007 28.353C44.7944 28.1037 44.7506 27.9229 44.7506 27.8045C44.7506 27.6425 44.8382 27.4804 45.0321 27.3184C45.2259 27.1563 45.4761 27.0254 45.8014 26.8883C46.1266 26.7512 46.4956 26.664 46.9272 26.5767C47.34 26.5019 47.7903 26.4583 48.2594 26.4583C48.9098 26.4583 49.4602 26.5144 49.9043 26.6515C50.3484 26.7886 50.7174 26.9943 50.9988 27.256C51.2803 27.5365 51.4867 27.8793 51.6055 28.2906C51.7243 28.702 51.7806 29.1943 51.7806 29.7366L51.7931 33.152L51.8119 33.1582ZM49.4977 31.0765H49.2476C49.16 31.0765 49.0849 31.0765 48.9974 31.089C48.7034 31.1202 48.4032 31.1451 48.1093 31.195C47.8153 31.2386 47.5464 31.3258 47.3212 31.4443C47.096 31.5627 46.9084 31.7247 46.7583 31.9179C46.6082 32.1111 46.5331 32.3604 46.5331 32.6596C46.5331 33.0024 46.6207 33.2828 46.8146 33.5197C47.0085 33.7565 47.3337 33.8749 47.7965 33.8749C48.0217 33.8749 48.2406 33.8438 48.447 33.7877C48.6534 33.7316 48.8348 33.6568 48.9974 33.5508C49.16 33.4449 49.2788 33.3452 49.3664 33.2392C49.454 33.1208 49.4977 33.0148 49.4977 32.9276V31.0828V31.0765ZM56.3088 27.5303C56.5027 27.3059 56.7967 27.0691 57.2157 26.8385C57.6285 26.6016 58.1351 26.4832 58.7606 26.4832C59.2047 26.4832 59.6362 26.558 60.0365 26.7076C60.4368 26.8572 60.7933 27.1065 61.106 27.4305C61.4187 27.7733 61.6689 28.2158 61.8503 28.7581C62.0442 29.3065 62.1317 29.9859 62.1317 30.7961C62.1317 31.7247 62.0254 32.51 61.8065 33.1146C61.5876 33.7191 61.3187 34.2052 60.9747 34.548C60.6307 34.9033 60.2492 35.1526 59.8301 35.3022C59.4173 35.4517 58.9858 35.5265 58.5667 35.5265C58.2227 35.5265 57.9162 35.4829 57.6598 35.4081C57.4034 35.3333 57.1845 35.2461 57.0093 35.1401C56.8342 35.0529 56.6966 34.9469 56.5966 34.8597C56.509 34.7724 56.4339 34.6976 56.4214 34.6664V39.0977H53.9572V26.7387C54.0135 26.7263 54.0885 26.7076 54.1823 26.7076C54.2574 26.6951 54.3449 26.6951 54.4325 26.6764C54.5388 26.6764 54.6389 26.664 54.7765 26.664C55.1768 26.664 55.5208 26.72 55.8022 26.8572C56.0712 26.988 56.2463 27.2124 56.3214 27.524L56.3088 27.5303ZM59.5737 30.8584C59.5737 30.5032 59.5424 30.1666 59.4861 29.855C59.4298 29.5434 59.3235 29.2816 59.1922 29.0448C59.0608 28.8204 58.8669 28.6459 58.6293 28.515C58.3916 28.3841 58.1101 28.3218 57.7661 28.3218C57.2595 28.3218 56.903 28.4277 56.7154 28.6023C56.5215 28.7955 56.4214 29.0011 56.4214 29.238V33.0647C56.509 33.1707 56.6904 33.2704 56.9405 33.4075C57.1907 33.5446 57.4722 33.6007 57.8037 33.6007C58.4103 33.6007 58.8544 33.3639 59.1546 32.8777C59.4361 32.4041 59.5862 31.7372 59.5862 30.8646L59.5737 30.8584ZM64.0206 33.9622C63.933 33.7253 63.8892 33.476 63.858 33.208C63.8267 32.9401 63.8267 32.6783 63.8267 32.4103V24.0588C63.9143 24.0463 64.0018 24.0276 64.0957 24.0276C64.1832 24.0152 64.2708 24.0152 64.3646 23.9965C64.4522 23.9965 64.5585 23.984 64.646 23.984C64.8399 23.984 65.0338 23.9965 65.2215 24.0401C65.4153 24.0712 65.5905 24.146 65.7406 24.2645C65.9032 24.3704 66.022 24.5138 66.1283 24.707C66.2159 24.9002 66.2785 25.137 66.2785 25.4299V26.7138H68.8178V28.5337H66.2972V32.3791C66.2972 33.2205 66.6412 33.6381 67.3229 33.6381C67.4856 33.6381 67.6482 33.6069 67.7983 33.5633C67.9484 33.5072 68.0797 33.4449 68.1986 33.3888C68.3174 33.3327 68.4237 33.2579 68.5113 33.1831C68.5989 33.1083 68.6614 33.0522 68.7052 33.0211C68.8803 33.2891 69.0304 33.5072 69.118 33.7004C69.2055 33.8936 69.2681 34.0681 69.2681 34.2489C69.2681 34.4109 69.2118 34.5605 69.0742 34.7101C68.9366 34.8597 68.7615 35.003 68.5426 35.1214C68.3174 35.2523 68.036 35.3582 67.7107 35.433C67.3855 35.5078 67.029 35.5515 66.6412 35.5515C65.8969 35.5515 65.309 35.4019 64.89 35.1214C64.5022 34.8098 64.2082 34.4421 64.0269 33.9684L64.0206 33.9622ZM75.041 33.7253C75.3349 33.7253 75.6039 33.6942 75.8415 33.6194C76.0667 33.5633 76.2731 33.4698 76.467 33.3826C76.6421 33.2953 76.811 33.1769 76.9423 33.0709C77.0736 32.9525 77.1925 32.8466 77.2988 32.7593C77.4489 32.9338 77.5928 33.1707 77.7616 33.4511C77.9243 33.7316 77.9993 33.9684 77.9993 34.1429C77.9993 34.4109 77.8492 34.6477 77.5552 34.8659C77.3051 35.0591 76.9486 35.2211 76.4732 35.3707C76.0104 35.5016 75.4663 35.5764 74.8408 35.5764C74.2779 35.5764 73.715 35.5016 73.1646 35.352C72.6142 35.2024 72.1264 34.9531 71.6948 34.5979C71.2633 34.2426 70.9255 33.7565 70.6566 33.152C70.3876 32.5474 70.2563 31.7746 70.2563 30.8584C70.2563 30.1043 70.3751 29.4561 70.6128 28.9076C70.8505 28.3592 71.1632 27.9042 71.5447 27.549C71.9325 27.1937 72.3765 26.9257 72.8769 26.7512C73.3648 26.5892 73.8714 26.5019 74.3905 26.5019C75.0597 26.5019 75.6351 26.6079 76.1105 26.8135C76.5858 27.0192 76.9548 27.2997 77.255 27.6549C77.549 28.0102 77.7616 28.409 77.893 28.864C78.0243 29.319 78.0869 29.7927 78.0869 30.2975V30.5468C78.0869 30.6527 78.0869 30.74 78.0744 30.8584C78.0744 30.9644 78.0619 31.0641 78.0619 31.17C78.0619 31.276 78.0493 31.3445 78.0306 31.4069H72.708C72.7518 32.0737 72.9582 32.616 73.3335 33.0647C73.69 33.4947 74.2654 33.7129 75.0535 33.7129L75.041 33.7253ZM75.8728 30.0731C75.8728 29.4997 75.754 29.0261 75.5288 28.6708C75.3036 28.3156 74.9034 28.1224 74.3279 28.1224C73.8213 28.1224 73.4398 28.2969 73.1396 28.6396C72.8394 28.9824 72.6955 29.4499 72.6955 30.0731H75.8728ZM82.3712 27.5739C82.4462 27.4679 82.5338 27.3495 82.6526 27.2186C82.7715 27.0878 82.9216 26.9693 83.0967 26.8634C83.2718 26.7574 83.4657 26.6702 83.6721 26.5954C83.8785 26.5206 84.1037 26.4894 84.3538 26.4894C84.5039 26.4894 84.6478 26.5019 84.8167 26.5206C84.9793 26.5518 85.1294 26.5954 85.2607 26.6515C85.3921 26.7076 85.5109 26.8011 85.6047 26.9195C85.6923 27.0379 85.7361 27.1688 85.7361 27.3308C85.7361 27.5988 85.6798 27.8917 85.5422 28.2345C85.4108 28.5773 85.2732 28.8702 85.1419 29.1071C84.9355 28.945 84.7291 28.8142 84.5352 28.7207C84.3288 28.6334 84.0912 28.5898 83.8097 28.5898C83.4407 28.5898 83.128 28.6957 82.8778 28.9139C82.6276 29.1382 82.49 29.3875 82.49 29.6992V35.5203H80.0257V26.7263C80.082 26.7138 80.1571 26.6951 80.2509 26.6951C80.326 26.6826 80.4135 26.6827 80.5011 26.664C80.5887 26.664 80.7075 26.6515 80.8451 26.6515C81.2329 26.6515 81.5706 26.7263 81.8521 26.8759C82.121 27.0379 82.2961 27.2623 82.3712 27.5677V27.5739ZM89.3574 27.5739C89.4325 27.4679 89.52 27.3495 89.6389 27.2186C89.7577 27.0878 89.9078 26.9693 90.0829 26.8634C90.258 26.7574 90.4519 26.6702 90.6583 26.5954C90.8647 26.5206 91.0899 26.4894 91.3401 26.4894C91.4902 26.4894 91.634 26.5019 91.8029 26.5206C91.9655 26.5518 92.1156 26.5954 92.247 26.6515C92.3783 26.7076 92.4971 26.8011 92.591 26.9195C92.6848 27.0379 92.7223 27.1688 92.7223 27.3308C92.7223 27.5988 92.666 27.8917 92.5284 28.2345C92.3971 28.5773 92.2595 28.8702 92.1281 29.1071C91.9217 28.945 91.7153 28.8142 91.5214 28.7207C91.3151 28.6334 91.0774 28.5898 90.7959 28.5898C90.4269 28.5898 90.1142 28.6957 89.864 28.9139C89.6138 29.132 89.4762 29.3875 89.4762 29.6992V35.5203H87.012V26.7263C87.0683 26.7138 87.1433 26.6951 87.2371 26.6951C87.3122 26.6826 87.3998 26.6827 87.4873 26.664C87.5749 26.664 87.6937 26.6515 87.8313 26.6515C88.2191 26.6515 88.5568 26.7263 88.8383 26.8759C89.1072 27.0379 89.2823 27.2623 89.3574 27.5677V27.5739ZM101.091 33.1582C101.091 34.1055 101.222 34.7973 101.504 35.2274C101.278 35.3146 101.091 35.3769 100.897 35.4019C100.703 35.4268 100.509 35.458 100.303 35.458C99.8711 35.458 99.5459 35.3707 99.3208 35.2087C99.0956 35.0466 98.9517 34.7973 98.8892 34.4857C98.6203 34.7662 98.2825 35.003 97.8384 35.1962C97.4069 35.3894 96.8753 35.4767 96.2498 35.4767C95.9246 35.4767 95.5994 35.433 95.2679 35.3458C94.9426 35.2585 94.6424 35.109 94.3797 34.9033C94.117 34.6976 93.9044 34.4296 93.7293 34.0931C93.5667 33.7503 93.4791 33.3389 93.4791 32.8528C93.4791 32.2482 93.6292 31.7434 93.9232 31.357C94.2171 30.9706 94.5924 30.6777 95.0364 30.4533C95.4805 30.2289 95.9684 30.0856 96.475 29.9921C96.9941 29.9048 97.4694 29.8612 97.901 29.83C98.0511 29.8176 98.1824 29.8176 98.3326 29.8176H98.7203V29.4935C98.7203 29.0323 98.6015 28.7082 98.3513 28.5025C98.1011 28.3093 97.7009 28.2096 97.1505 28.2096C96.6313 28.2096 96.1685 28.2969 95.7682 28.4589C95.3679 28.6209 94.9677 28.8142 94.5799 29.0323C94.4173 28.8266 94.2672 28.6023 94.1796 28.353C94.0733 28.1037 94.0295 27.9229 94.0295 27.8045C94.0295 27.6425 94.117 27.4804 94.3109 27.3184C94.5048 27.1563 94.755 27.0254 95.0802 26.8883C95.4055 26.7512 95.7745 26.664 96.206 26.5767C96.6188 26.5019 97.0691 26.4583 97.5382 26.4583C98.1887 26.4583 98.7391 26.5144 99.1832 26.6515C99.6272 26.7886 99.9962 26.9943 100.278 27.256C100.559 27.5365 100.766 27.8793 100.884 28.2906C101.003 28.702 101.059 29.1943 101.059 29.7366L101.072 33.152L101.091 33.1582ZM98.7766 31.0765H98.5264C98.4389 31.0765 98.3638 31.0765 98.2763 31.089C97.9823 31.1202 97.6821 31.1451 97.3881 31.195C97.0942 31.2386 96.8252 31.3258 96.6001 31.4443C96.3749 31.5627 96.1873 31.7247 96.0372 31.9179C95.8871 32.1111 95.812 32.3604 95.812 32.6596C95.812 33.0024 95.8996 33.2828 96.0935 33.5197C96.2873 33.7565 96.6126 33.8749 97.0754 33.8749C97.3006 33.8749 97.5195 33.8438 97.7259 33.7877C97.9323 33.7316 98.1136 33.6568 98.2763 33.5508C98.4389 33.4449 98.5577 33.3452 98.6453 33.2392C98.7328 33.1208 98.7766 33.0148 98.7766 32.9276V31.0828V31.0765Z" fill="white"/>
<path d="M30.1871 89.1089C30.0062 89.1089 29.7649 89.0486 29.584 88.9883L27.5936 87.963C27.4127 87.8424 27.1714 87.8424 26.9302 87.963L24.9398 88.9883C24.7589 89.109 24.5176 89.1693 24.3367 89.1089C23.9748 89.1089 23.6129 88.928 23.3717 88.6868C23.1304 88.3852 23.0098 88.0233 23.0701 87.6614L23.432 85.4298C23.4923 85.1886 23.3717 85.0076 23.251 84.8267L21.6829 83.2585C21.321 82.8966 21.2004 82.4141 21.321 81.9316C21.4416 81.4491 21.8638 81.1475 22.3463 81.0269L24.5779 80.665C24.8192 80.6047 25.0001 80.4841 25.1208 80.3032L26.0858 78.3128C26.3873 77.6494 27.1714 77.4081 27.8349 77.7097C28.0761 77.8303 28.3174 78.0715 28.438 78.3128L29.4633 80.3032C29.584 80.4841 29.7649 80.665 30.0062 80.665L32.2378 80.9666C32.7203 81.0269 33.1425 81.3888 33.2631 81.8713C33.3837 82.3538 33.2631 82.8363 32.9012 83.1982L31.2727 84.8267C31.0918 85.0076 31.0315 85.1886 31.0918 85.4298L31.4537 87.6614C31.514 88.0233 31.4537 88.4455 31.2124 88.7471C30.9109 88.9883 30.549 89.1693 30.1871 89.1089Z" fill="#FF9D28"/>
<path d="M27.2922 77.8906C27.6541 77.8906 28.0159 78.1319 28.1969 78.4334L29.1619 80.4238C29.2825 80.7254 29.5841 80.9063 29.8857 80.9666L32.1173 81.2682C32.6601 81.3285 33.022 81.8713 32.9617 82.4141C32.9013 82.6554 32.841 82.8363 32.6601 82.957L31.0316 84.5251C30.7904 84.7664 30.6697 85.0679 30.7301 85.4298L31.0919 87.6011C31.1522 88.1439 30.7904 88.6264 30.2475 88.7471C30.0666 88.7471 29.8253 88.7471 29.6444 88.6264L27.6541 87.6011C27.3525 87.4202 26.9906 87.4202 26.7494 87.6011L24.8796 88.6868C24.3971 88.928 23.794 88.7471 23.5527 88.2042C23.4321 88.0233 23.4321 87.8424 23.4321 87.6614L23.794 85.4901C23.8543 85.1886 23.7337 84.8267 23.4924 84.5854L21.8639 83.0173C21.4417 82.6554 21.4417 81.9919 21.8639 81.6301C22.0449 81.4491 22.2258 81.3888 22.4068 81.3285L24.6384 81.0269C24.9399 80.9666 25.2415 80.7857 25.3621 80.4841L26.3272 78.4937C26.5684 78.1319 26.9303 77.8906 27.2922 77.8906ZM27.2922 77.2875C26.689 77.2875 26.0859 77.6494 25.8446 78.1922L24.8796 80.1825C24.8193 80.3032 24.6987 80.3635 24.5781 80.3635L22.3464 80.665C21.7433 80.7254 21.2608 81.1476 21.0799 81.7507C20.8989 82.3538 21.0196 82.957 21.5021 83.3792L23.0702 84.9473C23.1908 85.0076 23.1908 85.1886 23.1908 85.3092L22.829 87.5408C22.7686 88.0233 22.8893 88.5058 23.1908 88.8677C23.4924 89.2296 23.9146 89.4708 24.3971 89.4708C24.6384 89.4708 24.9399 89.4105 25.1209 89.2899L27.1112 88.2042C27.2319 88.1439 27.3525 88.1439 27.4731 88.2042L29.4635 89.2296C29.7047 89.3502 29.946 89.4105 30.1872 89.4105C30.6697 89.4105 31.0919 89.1693 31.3935 88.8074C31.6951 88.4455 31.8157 87.963 31.7554 87.4805L31.3935 85.3092C31.3935 85.1886 31.3935 85.0679 31.5141 84.9473L33.0823 83.4395C33.5045 83.0173 33.6854 82.3538 33.5045 81.811C33.3235 81.2079 32.841 80.7857 32.2379 80.7254L30.0063 80.4238C29.8857 80.4238 29.765 80.3032 29.7047 80.2428L28.7397 78.2525C28.4381 77.6494 27.8953 77.2875 27.2922 77.2875Z" fill="#FF9D28"/>
<path d="M42.6719 77.8906C43.0338 77.8906 43.3957 78.1319 43.5766 78.4334L44.5416 80.4238C44.6623 80.7254 44.9638 80.9063 45.2654 80.9666L47.497 81.2682C48.0398 81.3285 48.4017 81.8713 48.3414 82.4141C48.2811 82.6554 48.2208 82.8363 48.0398 82.957L46.4114 84.5251C46.1701 84.7664 46.0495 85.0679 46.1098 85.4298L46.4717 87.6011C46.5923 88.1439 46.2304 88.6868 45.6876 88.7471C45.6273 88.7471 45.567 88.7471 45.5066 88.7471C45.3257 88.7471 45.2051 88.6868 45.0241 88.6264L43.0338 87.6011C42.7322 87.4202 42.3703 87.4202 42.1291 87.6011L40.1387 88.6264C39.6562 88.8677 39.0531 88.6868 38.8118 88.2043C38.6912 88.0233 38.6912 87.7821 38.6912 87.5408L39.0531 85.3695C39.1134 85.0679 38.9928 84.7061 38.7515 84.4648L37.1834 82.957C36.7612 82.5951 36.7612 81.9316 37.1834 81.5697C37.3643 81.3888 37.5452 81.3285 37.7262 81.2682L39.9578 80.9666C40.2594 80.9063 40.5609 80.7254 40.6816 80.4238L41.6466 78.4334C41.9481 78.1319 42.31 77.8906 42.6719 77.8906ZM42.6719 77.2875C42.0688 77.2875 41.5259 77.6494 41.2244 78.1922L40.2594 80.1825C40.199 80.3032 40.0784 80.3635 39.9578 80.3635L37.7262 80.665C36.8818 80.7857 36.2787 81.5697 36.3993 82.4745C36.4596 82.8363 36.6405 83.1379 36.8818 83.3792L38.5103 84.9473C38.6309 85.0076 38.6309 85.1886 38.6309 85.3092L38.269 87.4805C38.2087 87.963 38.3293 88.4455 38.6309 88.8074C38.9325 89.1693 39.3546 89.4105 39.8372 89.4105C40.0784 89.4105 40.38 89.3502 40.5609 89.2296L42.5513 88.2043C42.6116 88.2043 42.6719 88.1439 42.7322 88.1439C42.7925 88.1439 42.8528 88.1439 42.9132 88.2043L44.9035 89.2296C45.1448 89.3502 45.386 89.4105 45.6273 89.4105C46.1098 89.4105 46.532 89.1693 46.8335 88.8074C47.1351 88.4455 47.2557 87.963 47.1954 87.4805L46.8335 85.3092C46.8335 85.1886 46.8335 85.0679 46.9542 84.9473L48.5826 83.3792C49.1858 82.776 49.2461 81.7507 48.643 81.1476C48.4017 80.9063 48.0398 80.7254 47.7383 80.665L45.5066 80.3635C45.386 80.3635 45.2654 80.2428 45.2051 80.1825L44.2401 78.1922C43.8179 77.6494 43.275 77.2875 42.6719 77.2875Z" fill="#FF9D28"/>
<path d="M45.5671 89.1089C45.3862 89.1089 45.145 89.0486 44.964 88.9883L42.9737 87.963C42.853 87.9027 42.7324 87.9027 42.6721 87.9027C42.5515 87.9027 42.4308 87.9027 42.3705 87.963L40.3802 88.9883C40.1992 89.1089 39.958 89.1693 39.777 89.1089C39.4152 89.1089 39.0533 88.928 38.7517 88.6264C38.5105 88.3249 38.3898 87.963 38.4501 87.6011L38.812 85.3695C38.8723 85.1282 38.7517 84.9473 38.6311 84.7664L37.0629 83.2585C36.701 82.8966 36.5804 82.4141 36.7614 81.9316C36.882 81.4491 37.3042 81.0872 37.7867 81.0269L40.0183 80.7253C40.2595 80.665 40.4405 80.5444 40.5611 80.3635L41.5864 78.3731C41.888 77.7097 42.6721 77.4684 43.3355 77.77C43.5768 77.8906 43.8181 78.1319 43.9387 78.3731L44.9037 80.3635C45.0243 80.5444 45.2053 80.7253 45.4465 80.7253L47.6781 81.0269C48.4019 81.1475 48.8844 81.811 48.7638 82.5347C48.7035 82.8363 48.5828 83.0776 48.4019 83.2585L46.7734 84.8267C46.5925 85.0076 46.5322 85.1885 46.5925 85.4298L46.9544 87.6614C47.0147 88.0233 46.8941 88.4455 46.6528 88.6867C46.2909 88.9883 45.929 89.1089 45.5671 89.1089Z" fill="#FF9D28"/>
<path d="M42.6719 77.8906C43.0338 77.8906 43.3957 78.1319 43.5766 78.4334L44.5416 80.4238C44.6623 80.7254 44.9638 80.9063 45.2654 80.9666L47.497 81.2682C48.0398 81.3285 48.4017 81.8713 48.3414 82.4141C48.2811 82.6554 48.2208 82.8363 48.0398 82.957L46.4114 84.5251C46.1701 84.7664 46.0495 85.0679 46.1098 85.4298L46.4717 87.6011C46.5923 88.1439 46.2304 88.6868 45.6876 88.7471C45.6273 88.7471 45.567 88.7471 45.5066 88.7471C45.3257 88.7471 45.2051 88.6868 45.0241 88.6264L43.0338 87.6011C42.7322 87.4202 42.3703 87.4202 42.1291 87.6011L40.1387 88.6264C39.6562 88.8677 39.0531 88.6868 38.8118 88.2043C38.6912 88.0233 38.6912 87.7821 38.6912 87.5408L39.0531 85.3695C39.1134 85.0679 38.9928 84.7061 38.7515 84.4648L37.1834 82.957C36.7612 82.5951 36.7612 81.9316 37.1834 81.5697C37.3643 81.3888 37.5452 81.3285 37.7262 81.2682L39.9578 80.9666C40.2594 80.9063 40.5609 80.7254 40.6816 80.4238L41.6466 78.4334C41.9481 78.1319 42.31 77.8906 42.6719 77.8906ZM42.6719 77.2875C42.0688 77.2875 41.5259 77.6494 41.2244 78.1922L40.2594 80.1825C40.199 80.3032 40.0784 80.3635 39.9578 80.3635L37.7262 80.665C36.8818 80.7857 36.2787 81.5697 36.3993 82.4745C36.4596 82.8363 36.6405 83.1379 36.8818 83.3792L38.5103 84.9473C38.6309 85.0076 38.6309 85.1886 38.6309 85.3092L38.269 87.4805C38.2087 87.963 38.3293 88.4455 38.6309 88.8074C38.9325 89.1693 39.3546 89.4105 39.8372 89.4105C40.0784 89.4105 40.38 89.3502 40.5609 89.2296L42.5513 88.2043C42.6116 88.2043 42.6719 88.1439 42.7322 88.1439C42.7925 88.1439 42.8528 88.1439 42.9132 88.2043L44.9035 89.2296C45.1448 89.3502 45.386 89.4105 45.6273 89.4105C46.1098 89.4105 46.532 89.1693 46.8335 88.8074C47.1351 88.4455 47.2557 87.963 47.1954 87.4805L46.8335 85.3092C46.8335 85.1886 46.8335 85.0679 46.9542 84.9473L48.5826 83.3792C49.1858 82.776 49.2461 81.7507 48.643 81.1476C48.4017 80.9063 48.0398 80.7254 47.7383 80.665L45.5066 80.3635C45.386 80.3635 45.2654 80.2428 45.2051 80.1825L44.2401 78.1922C43.8179 77.6494 43.275 77.2875 42.6719 77.2875Z" fill="#FF9D28"/>
<path d="M60.2837 89.1089C60.1028 89.1089 59.8615 89.0486 59.6806 88.9883L57.6902 87.963C57.5696 87.9027 57.449 87.9027 57.3886 87.9027C57.268 87.9027 57.1474 87.9027 57.0871 87.963L55.0967 88.9883C54.9158 89.109 54.6745 89.1693 54.4936 89.1089C54.1317 89.1089 53.7698 88.928 53.4683 88.6264C53.227 88.3249 53.1064 87.963 53.1667 87.6011L53.5286 85.3695C53.5889 85.1282 53.4683 84.9473 53.3476 84.7664L51.7795 83.1982C51.4176 82.8363 51.297 82.3538 51.4779 81.8713C51.5985 81.3888 52.0207 81.0269 52.5032 80.9666L54.7348 80.665C54.9761 80.6047 55.157 80.4841 55.2777 80.3032L56.2427 78.3128C56.5443 77.6494 57.3283 77.4081 57.9918 77.7097C58.233 77.8303 58.4743 78.0715 58.5949 78.3128L59.5599 80.3032C59.6806 80.4841 59.8615 80.665 60.1028 80.665L62.3344 80.9666C63.0581 81.0872 63.5406 81.7507 63.42 82.4141C63.3597 82.7157 63.2391 82.957 63.0581 83.1379L61.49 84.7061C61.309 84.887 61.2487 85.0679 61.309 85.3092L61.6709 87.5408C61.7312 87.9027 61.6106 88.3249 61.3693 88.5661C61.0678 88.928 60.7059 89.1089 60.2837 89.1089Z" fill="#FF9D28"/>
<path d="M57.3887 77.8906C57.7506 77.8906 58.1125 78.1319 58.2934 78.4334L59.2584 80.4238C59.379 80.7254 59.6806 80.9063 59.9822 80.9666L62.2138 81.2682C62.7566 81.3285 63.1185 81.8713 63.0582 82.4141C62.9979 82.6554 62.9375 82.8363 62.7566 82.957L61.1281 84.5251C60.8869 84.7664 60.7663 85.0679 60.8266 85.4298L61.1885 87.6011C61.3091 88.1439 60.9472 88.6264 60.4044 88.7471C60.3441 88.7471 60.2837 88.7471 60.2234 88.7471C60.0425 88.7471 59.9219 88.6868 59.7409 88.6264L57.7506 87.6011C57.449 87.4202 57.0871 87.4202 56.8459 87.6011L54.8555 88.6264C54.373 88.8677 53.7699 88.6868 53.5286 88.2043C53.408 88.0233 53.408 87.7821 53.408 87.5408L53.7699 85.3695C53.8302 85.0679 53.7096 84.7061 53.4683 84.4648L51.8398 82.8966C51.4176 82.5348 51.4176 81.8713 51.8398 81.5094C52.0208 81.3285 52.2017 81.2682 52.3827 81.2079L54.6143 80.9063C54.9158 80.846 55.2174 80.665 55.338 80.3635L56.303 78.3731C56.6649 78.1319 57.0268 77.8906 57.3887 77.8906ZM57.3887 77.2875C56.7856 77.2875 56.2427 77.6494 56.0015 78.1922L55.0365 80.1825C54.9761 80.3032 54.8555 80.3635 54.7349 80.3635L52.5033 80.665C51.6589 80.7857 51.0558 81.5697 51.1764 82.4745C51.2367 82.8363 51.4176 83.1379 51.6589 83.3792L53.2874 84.9473C53.408 85.0076 53.408 85.1886 53.408 85.3092L53.0461 87.4805C52.9858 87.963 53.1064 88.4455 53.408 88.8074C53.7096 89.1693 54.1317 89.4105 54.6143 89.4105C54.8555 89.4105 55.1571 89.3502 55.338 89.2296L57.2681 88.1439C57.3284 88.1439 57.3887 88.0836 57.449 88.0836C57.5093 88.0836 57.5696 88.0836 57.6299 88.1439L59.6203 89.1693C59.8615 89.2899 60.1028 89.3502 60.3441 89.3502C60.8266 89.3502 61.2488 89.109 61.5503 88.7471C61.8519 88.3852 61.9725 87.9027 61.9122 87.4202L61.5503 85.2489C61.5503 85.1283 61.5503 85.0076 61.671 84.887L63.3597 83.3792C63.9629 82.776 64.0232 81.7507 63.4201 81.1476C63.1788 80.9063 62.8772 80.7254 62.5154 80.665L60.2837 80.3635C60.1631 80.3635 60.0425 80.2428 59.9822 80.1825L59.0172 78.1922C58.595 77.6494 58.0521 77.2875 57.3887 77.2875Z" fill="#FF9D28"/>
<path d="M75.5429 89.1089C75.3619 89.1089 75.1207 89.0486 74.9397 88.9883L72.9494 87.963C72.7684 87.8424 72.5272 87.8424 72.2859 87.963L70.2956 88.9883C70.1146 89.1089 69.8734 89.1693 69.6924 89.1089C69.3306 89.1089 68.9687 88.928 68.7274 88.6264C68.4862 88.3249 68.3655 87.963 68.4259 87.6011L68.7877 85.3695C68.848 85.1282 68.7274 84.9473 68.6068 84.7664L67.0386 83.1982C66.5561 82.7157 66.4958 81.8713 67.0386 81.3888C67.2196 81.2078 67.5211 81.0269 67.7624 81.0269L69.994 80.7253C70.2353 80.665 70.4162 80.5444 70.5368 80.3635L71.5018 78.3731C71.8034 77.7097 72.5875 77.4684 73.251 77.77C73.4922 77.8906 73.7335 78.1319 73.8541 78.3731L74.8191 80.3635C74.9397 80.5444 75.1207 80.7253 75.3619 80.7253L77.5935 81.0269C78.076 81.0872 78.4982 81.4491 78.6189 81.9316C78.7998 82.4141 78.6189 82.8966 78.3173 83.2585L76.7491 84.8267C76.5682 85.0076 76.5079 85.1885 76.5682 85.4298L76.9301 87.6614C76.9904 88.0233 76.8698 88.4455 76.6285 88.7471C76.3269 88.9883 75.9651 89.1693 75.5429 89.1089Z" fill="#FF9D28"/>
<path d="M72.6478 77.8906C73.0096 77.8906 73.3715 78.1319 73.5525 78.4334L74.5175 80.4238C74.6381 80.7254 74.9397 80.9063 75.2412 80.9666L77.4729 81.2682C78.0157 81.3285 78.3776 81.8713 78.3172 82.4141C78.2569 82.6554 78.1966 82.8363 78.0157 82.957L76.4475 84.5251C76.2063 84.7664 76.0856 85.0679 76.1459 85.4298L76.5078 87.6011C76.5681 88.1439 76.2063 88.6264 75.6634 88.7471C75.4825 88.8074 75.2412 88.7471 75.0603 88.6264L73.07 87.6011C72.7684 87.4202 72.4065 87.4202 72.1652 87.6011L70.1749 88.6264C69.6924 88.8677 69.0892 88.6868 68.848 88.2043C68.7274 88.0233 68.7274 87.7821 68.7274 87.5408L69.0892 85.3695C69.1496 85.0679 69.0289 84.7061 68.7877 84.4648L67.2195 82.8966C66.7973 82.5348 66.7973 81.8713 67.2195 81.5094C67.4005 81.3285 67.5814 81.2682 67.7623 81.2079L69.994 80.9063C70.2955 80.846 70.5971 80.665 70.7177 80.3635L71.6827 78.3731C71.924 78.1319 72.2859 77.8906 72.6478 77.8906ZM72.7081 77.2875C72.1049 77.2875 71.5621 77.6494 71.2605 78.1922L70.2955 80.1825C70.2352 80.3032 70.1146 80.3635 69.994 80.3635L67.7623 80.665C67.1592 80.7254 66.6767 81.1476 66.4958 81.7507C66.3148 82.3538 66.4354 82.957 66.918 83.3792L68.4861 84.9473C68.6067 85.0076 68.6067 85.1886 68.6067 85.3092L68.2449 87.4805C68.1845 87.963 68.3052 88.4455 68.6067 88.8074C68.9083 89.1693 69.3305 89.4105 69.813 89.4105C70.0543 89.4105 70.3558 89.3502 70.5368 89.2296L72.5271 88.2043C72.5874 88.2043 72.6478 88.1439 72.7081 88.1439C72.7684 88.1439 72.8287 88.1439 72.889 88.2043L74.8794 89.2296C75.1206 89.3502 75.3619 89.4105 75.6031 89.4105C76.0856 89.4105 76.5078 89.1693 76.8094 88.8074C77.111 88.4455 77.2316 87.963 77.1713 87.4805L76.8094 85.3092C76.8094 85.1886 76.8094 85.0679 76.93 84.9473L78.4982 83.3792C79.1013 82.776 79.1616 81.7507 78.5585 81.1476C78.3172 80.9063 78.0157 80.7254 77.6538 80.665L75.4222 80.3635C75.3016 80.3635 75.1809 80.2428 75.1206 80.1825L74.1556 78.1922C73.854 77.6494 73.2509 77.2875 72.7081 77.2875Z" fill="#FF9D28"/>
<path d="M57.449 77.8906C57.8109 77.8906 58.1728 78.1319 58.3537 78.4334L59.3187 80.4238C59.4394 80.7254 59.7409 80.9063 60.0425 80.9666L62.2741 81.2682C62.8169 81.3285 63.1788 81.8713 63.1185 82.4141C63.0582 82.6554 62.9979 82.8363 62.8169 82.957L61.2488 84.5251C61.0075 84.7664 60.8869 85.0679 60.9472 85.4298L61.3091 87.6011C61.4297 88.1439 61.0678 88.6264 60.525 88.7471C60.4647 88.7471 60.4044 88.7471 60.3441 88.7471C60.1631 88.7471 60.0425 88.6868 59.8615 88.6264L57.8712 87.6011C57.5696 87.4202 57.2078 87.4202 56.9665 87.6011L54.9761 88.6264C54.4936 88.8677 53.8905 88.6264 53.6492 88.1439C53.5889 87.963 53.5286 87.7821 53.5889 87.6011L53.9508 85.4298C54.0111 85.1283 53.8905 84.7664 53.6492 84.5251L52.0208 82.957C51.5986 82.5951 51.5986 81.9316 52.0208 81.5697C52.2017 81.3888 52.3827 81.3285 52.5636 81.2682L54.7952 80.9666C55.0968 80.9063 55.3983 80.7254 55.519 80.4238L56.484 78.4334C56.7252 78.1319 57.0871 77.8906 57.449 77.8906ZM57.449 77.2875C56.8459 77.2875 56.2427 77.6494 56.0015 78.1922L55.0365 80.1825C54.9761 80.3032 54.8555 80.3635 54.7349 80.3635L52.5033 80.665C51.6589 80.7857 51.0558 81.5697 51.1764 82.4745C51.2367 82.8363 51.4176 83.1379 51.6589 83.3792L53.2874 84.9473C53.408 85.0076 53.408 85.1886 53.408 85.3092L53.0461 87.4805C52.9858 87.963 53.1064 88.4455 53.408 88.8074C53.7096 89.1693 54.1317 89.4105 54.6143 89.4105C54.8555 89.4105 55.1571 89.3502 55.338 89.2296L57.3284 88.2043C57.3887 88.2043 57.449 88.1439 57.5093 88.1439C57.5696 88.1439 57.6299 88.1439 57.6903 88.2043L59.6806 89.2296C59.9219 89.3502 60.1631 89.4105 60.4044 89.4105C60.8869 89.4105 61.3091 89.1693 61.6106 88.8074C61.9122 88.4455 62.0328 87.963 61.9725 87.4805L61.6106 85.3092C61.6106 85.1886 61.6106 85.0679 61.7313 84.9473L63.2994 83.4395C63.9026 82.8363 63.9629 81.811 63.3597 81.2079C63.1185 80.9666 62.8169 80.7857 62.455 80.7254L60.2234 80.4238C60.1028 80.4238 59.9822 80.3032 59.9219 80.2428L58.9568 78.2525C58.595 77.6494 58.0521 77.2875 57.449 77.2875Z" fill="#FF9D28"/>
<path d="M57.449 77.8906C57.8109 77.8906 58.1728 78.1319 58.3537 78.4334L59.3187 80.4238C59.4394 80.7254 59.7409 80.9063 60.0425 80.9666L62.2741 81.2682C62.8169 81.3285 63.1788 81.8713 63.1185 82.4141C63.0582 82.6554 62.9979 82.8363 62.8169 82.957L61.2488 84.5251C61.0075 84.7664 60.8869 85.0679 60.9472 85.4298L61.3091 87.6011C61.4297 88.1439 61.0678 88.6264 60.525 88.7471C60.4647 88.7471 60.4044 88.7471 60.3441 88.7471C60.1631 88.7471 60.0425 88.6868 59.8615 88.6264L57.8712 87.6011C57.5696 87.4202 57.2078 87.4202 56.9665 87.6011L54.9761 88.6264C54.4936 88.8677 53.8905 88.6264 53.6492 88.1439C53.5889 87.963 53.5286 87.7821 53.5889 87.6011L53.9508 85.4298C54.0111 85.1283 53.8905 84.7664 53.6492 84.5251L52.0208 82.957C51.5986 82.5951 51.5986 81.9316 52.0208 81.5697C52.2017 81.3888 52.3827 81.3285 52.5636 81.2682L54.7952 80.9666C55.0968 80.9063 55.3983 80.7254 55.519 80.4238L56.484 78.4334C56.7252 78.1319 57.0871 77.8906 57.449 77.8906ZM57.449 77.2875C56.8459 77.2875 56.2427 77.6494 56.0015 78.1922L55.0365 80.1825C54.9761 80.3032 54.8555 80.3635 54.7349 80.3635L52.5033 80.665C51.6589 80.7857 51.0558 81.5697 51.1764 82.4745C51.2367 82.8363 51.4176 83.1379 51.6589 83.3792L53.2874 84.9473C53.408 85.0076 53.408 85.1886 53.408 85.3092L53.0461 87.4805C52.9858 87.963 53.1064 88.4455 53.408 88.8074C53.7096 89.1693 54.1317 89.4105 54.6143 89.4105C54.8555 89.4105 55.1571 89.3502 55.338 89.2296L57.3284 88.2043C57.3887 88.2043 57.449 88.1439 57.5093 88.1439C57.5696 88.1439 57.6299 88.1439 57.6903 88.2043L59.6806 89.2296C59.9219 89.3502 60.1631 89.4105 60.4044 89.4105C60.8869 89.4105 61.3091 89.1693 61.6106 88.8074C61.9122 88.4455 62.0328 87.963 61.9725 87.4805L61.6106 85.3092C61.6106 85.1886 61.6106 85.0679 61.7313 84.9473L63.2994 83.4395C63.9026 82.8363 63.9629 81.811 63.3597 81.2079C63.1185 80.9666 62.8169 80.7857 62.455 80.7254L60.2234 80.4238C60.1028 80.4238 59.9822 80.3032 59.9219 80.2428L58.9568 78.2525C58.595 77.6494 58.0521 77.2875 57.449 77.2875Z" fill="#FF9D28"/>
<path d="M57.449 77.8906C57.8109 77.8906 58.1728 78.1319 58.3537 78.4334L59.3187 80.4238C59.4394 80.7254 59.7409 80.9063 60.0425 80.9666L62.2741 81.2682C62.8169 81.3285 63.1788 81.8713 63.1185 82.4141C63.0582 82.6554 62.9979 82.8363 62.8169 82.957L61.2488 84.5251C61.0075 84.7664 60.8869 85.0679 60.9472 85.4298L61.3091 87.6011C61.4297 88.1439 61.0678 88.6264 60.525 88.7471C60.4647 88.7471 60.4044 88.7471 60.3441 88.7471C60.1631 88.7471 60.0425 88.6868 59.8615 88.6264L57.8712 87.6011C57.5696 87.4202 57.2078 87.4202 56.9665 87.6011L54.9761 88.6264C54.4936 88.8677 53.8905 88.6264 53.6492 88.1439C53.5889 87.963 53.5286 87.7821 53.5889 87.6011L53.9508 85.4298C54.0111 85.1283 53.8905 84.7664 53.6492 84.5251L52.0208 82.957C51.5986 82.5951 51.5986 81.9316 52.0208 81.5697C52.2017 81.3888 52.3827 81.3285 52.5636 81.2682L54.7952 80.9666C55.0968 80.9063 55.3983 80.7254 55.519 80.4238L56.484 78.4334C56.7252 78.1319 57.0871 77.8906 57.449 77.8906ZM57.449 77.2875C56.8459 77.2875 56.2427 77.6494 56.0015 78.1922L55.0365 80.1825C54.9761 80.3032 54.8555 80.3635 54.7349 80.3635L52.5033 80.665C51.6589 80.7857 51.0558 81.5697 51.1764 82.4745C51.2367 82.8363 51.4176 83.1379 51.6589 83.3792L53.2874 84.9473C53.408 85.0076 53.408 85.1886 53.408 85.3092L53.0461 87.4805C52.9858 87.963 53.1064 88.4455 53.408 88.8074C53.7096 89.1693 54.1317 89.4105 54.6143 89.4105C54.8555 89.4105 55.1571 89.3502 55.338 89.2296L57.3284 88.2043C57.3887 88.2043 57.449 88.1439 57.5093 88.1439C57.5696 88.1439 57.6299 88.1439 57.6903 88.2043L59.6806 89.2296C59.9219 89.3502 60.1631 89.4105 60.4044 89.4105C60.8869 89.4105 61.3091 89.1693 61.6106 88.8074C61.9122 88.4455 62.0328 87.963 61.9725 87.4805L61.6106 85.3092C61.6106 85.1886 61.6106 85.0679 61.7313 84.9473L63.2994 83.4395C63.9026 82.8363 63.9629 81.811 63.3597 81.2079C63.1185 80.9666 62.8169 80.7857 62.455 80.7254L60.2234 80.4238C60.1028 80.4238 59.9822 80.3032 59.9219 80.2428L58.9568 78.2525C58.595 77.6494 58.0521 77.2875 57.449 77.2875Z" fill="#FF9D28"/>
<path d="M57.449 77.8906C57.8109 77.8906 58.1728 78.1319 58.3537 78.4334L59.3187 80.4238C59.4394 80.7254 59.7409 80.9063 60.0425 80.9666L62.2741 81.2682C62.8169 81.3285 63.1788 81.8713 63.1185 82.4141C63.0582 82.6554 62.9979 82.8363 62.8169 82.957L61.2488 84.5251C61.0075 84.7664 60.8869 85.0679 60.9472 85.4298L61.3091 87.6011C61.4297 88.1439 61.0678 88.6264 60.525 88.7471C60.4647 88.7471 60.4044 88.7471 60.3441 88.7471C60.1631 88.7471 60.0425 88.6868 59.8615 88.6264L57.8712 87.6011C57.5696 87.4202 57.2078 87.4202 56.9665 87.6011L54.9761 88.6264C54.4936 88.8677 53.8905 88.6264 53.6492 88.1439C53.5889 87.963 53.5286 87.7821 53.5889 87.6011L53.9508 85.4298C54.0111 85.1283 53.8905 84.7664 53.6492 84.5251L52.0208 82.957C51.5986 82.5951 51.5986 81.9316 52.0208 81.5697C52.2017 81.3888 52.3827 81.3285 52.5636 81.2682L54.7952 80.9666C55.0968 80.9063 55.3983 80.7254 55.519 80.4238L56.484 78.4334C56.7252 78.1319 57.0871 77.8906 57.449 77.8906ZM57.449 77.2875C56.8459 77.2875 56.2427 77.6494 56.0015 78.1922L55.0365 80.1825C54.9761 80.3032 54.8555 80.3635 54.7349 80.3635L52.5033 80.665C51.6589 80.7857 51.0558 81.5697 51.1764 82.4745C51.2367 82.8363 51.4176 83.1379 51.6589 83.3792L53.2874 84.9473C53.408 85.0076 53.408 85.1886 53.408 85.3092L53.0461 87.4805C52.9858 87.963 53.1064 88.4455 53.408 88.8074C53.7096 89.1693 54.1317 89.4105 54.6143 89.4105C54.8555 89.4105 55.1571 89.3502 55.338 89.2296L57.3284 88.2043C57.3887 88.2043 57.449 88.1439 57.5093 88.1439C57.5696 88.1439 57.6299 88.1439 57.6903 88.2043L59.6806 89.2296C59.9219 89.3502 60.1631 89.4105 60.4044 89.4105C60.8869 89.4105 61.3091 89.1693 61.6106 88.8074C61.9122 88.4455 62.0328 87.963 61.9725 87.4805L61.6106 85.3092C61.6106 85.1886 61.6106 85.0679 61.7313 84.9473L63.2994 83.4395C63.9026 82.8363 63.9629 81.811 63.3597 81.2079C63.1185 80.9666 62.8169 80.7857 62.455 80.7254L60.2234 80.4238C60.1028 80.4238 59.9822 80.3032 59.9219 80.2428L58.9568 78.2525C58.595 77.6494 58.0521 77.2875 57.449 77.2875Z" fill="#FF9D28"/>
<path d="M57.449 77.8906C57.8109 77.8906 58.1728 78.1319 58.3537 78.4334L59.3187 80.4238C59.4394 80.7254 59.7409 80.9063 60.0425 80.9666L62.2741 81.2682C62.8169 81.3285 63.1788 81.8713 63.1185 82.4141C63.0582 82.6554 62.9979 82.8363 62.8169 82.957L61.2488 84.5251C61.0075 84.7664 60.8869 85.0679 60.9472 85.4298L61.3091 87.6011C61.4297 88.1439 61.0678 88.6264 60.525 88.7471C60.4647 88.7471 60.4044 88.7471 60.3441 88.7471C60.1631 88.7471 60.0425 88.6868 59.8615 88.6264L57.8712 87.6011C57.5696 87.4202 57.2078 87.4202 56.9665 87.6011L54.9761 88.6264C54.4936 88.8677 53.8905 88.6868 53.6492 88.2042C53.5286 88.0233 53.5286 87.7821 53.5286 87.5408L53.8905 85.3695C53.9508 85.0679 53.8302 84.7061 53.5889 84.4648L51.9605 82.8966C51.5383 82.5348 51.5383 81.8713 51.9605 81.5094C52.1414 81.3285 52.3223 81.2682 52.5033 81.2079L54.7349 80.9063C55.0365 80.846 55.338 80.665 55.4587 80.3635L56.4237 78.3731C56.7252 78.1319 57.0268 77.8906 57.449 77.8906ZM57.449 77.2875C56.8459 77.2875 56.303 77.6494 56.0015 78.1922L55.0365 80.1825C54.9761 80.3032 54.8555 80.3635 54.7349 80.3635L52.5033 80.665C51.6589 80.7857 51.0558 81.5697 51.1764 82.4745C51.2367 82.8363 51.4176 83.1379 51.6589 83.3792L53.2874 84.9473C53.408 85.0076 53.408 85.1886 53.408 85.3092L53.0461 87.4805C52.9858 87.963 53.1064 88.4455 53.408 88.8074C53.7096 89.1693 54.1317 89.4105 54.6143 89.4105C54.8555 89.4105 55.1571 89.3502 55.338 89.2296L57.3284 88.2042C57.3887 88.2042 57.449 88.1439 57.5093 88.1439C57.5696 88.1439 57.6299 88.1439 57.6903 88.2042L59.6203 89.2899C59.8616 89.4105 60.1028 89.4708 60.3441 89.4708C60.8266 89.4708 61.2488 89.2296 61.5503 88.8677C61.8519 88.5058 61.9725 88.0233 61.9122 87.5408L61.5503 85.3695C61.5503 85.2489 61.5503 85.1283 61.671 85.0076L63.2994 83.4395C63.9026 82.8363 63.9629 81.811 63.3597 81.2079C63.1185 80.9666 62.8169 80.7857 62.455 80.7254L60.2234 80.4238C60.1028 80.4238 59.9822 80.3032 59.9219 80.2428L58.9568 78.2525C58.595 77.6494 58.0521 77.2875 57.449 77.2875Z" fill="#FF9D28"/>
<path d="M93.5166 83.3792C94.1197 82.776 94.1801 81.7507 93.5769 81.1476C93.3357 80.9063 92.9738 80.7254 92.6722 80.665L90.4406 80.3635C90.32 80.3635 90.1994 80.2428 90.139 80.1825L89.174 78.1922C88.7518 77.6494 88.209 77.2875 87.6059 77.2875C87.0027 77.2875 86.4599 77.6494 86.1583 78.1922L85.1933 80.1825C85.133 80.3032 85.0124 80.3635 84.8917 80.3635L82.6601 80.665C81.8157 80.7857 81.2126 81.5697 81.3332 82.4745C81.3936 82.8363 81.5745 83.1379 81.8158 83.3792L83.4442 84.9473C83.5648 85.0076 83.5648 85.1886 83.5648 85.3092L83.203 87.4805C83.1427 87.963 83.2633 88.4455 83.5648 88.8074C83.8664 89.1693 84.2886 89.4105 84.7711 89.4105C85.0124 89.4105 85.3139 89.3502 85.4949 89.2296L87.4852 88.2043C87.5455 88.2043 87.6059 88.1439 87.6662 88.1439C87.7265 88.1439 87.7868 88.1439 87.8471 88.2043L89.8375 89.2296C90.0787 89.3502 90.32 89.4105 90.5612 89.4105C91.0437 89.4105 91.4659 89.1693 91.7675 88.8074C92.0691 88.4455 92.1897 87.963 92.1294 87.4805L91.7675 85.3092C91.7675 85.1886 91.7675 85.0679 91.8881 84.9473L93.5166 83.3792ZM93.2754 82.4141C93.215 82.6554 93.1547 82.8363 92.9738 82.957L92.1897 83.741V81.2682L92.431 81.3285C92.9738 81.3285 93.3357 81.8713 93.2754 82.4141Z" fill="#FF9D28"/>
<path d="M52.8131 109.337H51.0005V112.524H46.6253V109.337H40V106.087L46.8753 96.0237H51.0005V106.024H52.8131V109.337ZM46.5628 106.024V104.087C46.5628 103.712 46.5628 103.211 46.6253 102.649C46.6253 102.024 46.6878 101.711 46.6878 101.711H46.5628C46.3128 102.274 46.0003 102.836 45.6877 103.336L43.8752 106.087H46.5628V106.024Z" fill="#68C5ED"/>
<path d="M54.1255 110.649C54.1255 109.962 54.313 109.399 54.7505 109.024C55.188 108.649 55.7506 108.462 56.5631 108.462C57.3131 108.462 57.8756 108.649 58.2507 109.024C58.6257 109.399 58.8757 109.962 58.8757 110.649C58.8757 111.337 58.6882 111.837 58.2507 112.212C57.8131 112.587 57.2506 112.774 56.5631 112.774C55.8131 112.774 55.2505 112.587 54.813 112.212C54.313 111.899 54.1255 111.337 54.1255 110.649Z" fill="#68C5ED"/>
<path d="M72.6263 103.587C72.6263 106.837 71.9387 109.149 70.5637 110.587C69.1886 112.024 66.9385 112.774 63.8759 112.774C62.8758 112.774 62.1258 112.712 61.5633 112.649V109.087C62.1883 109.212 62.8758 109.274 63.5009 109.274C65.1259 109.274 66.3135 108.962 67.1885 108.274C68.0636 107.587 68.5011 106.587 68.6261 105.149H68.5011C68.1886 105.712 67.9386 106.087 67.626 106.337C67.3135 106.587 67.001 106.774 66.5635 106.899C66.126 107.024 65.626 107.087 65.0009 107.087C63.5634 107.087 62.4383 106.587 61.6258 105.649C60.8133 104.712 60.4382 103.399 60.4382 101.711C60.4382 99.8989 60.9383 98.4613 62.0008 97.3987C63.0633 96.3362 64.5009 95.8362 66.3135 95.8362C68.3136 95.8362 69.8761 96.5237 71.0012 97.8363C72.0637 99.2113 72.6263 101.086 72.6263 103.587ZM66.376 99.3988C65.876 99.3988 65.501 99.5863 65.1884 99.8989C64.8759 100.274 64.7509 100.836 64.7509 101.586C64.7509 102.211 64.8759 102.711 65.1259 103.086C65.3759 103.462 65.8135 103.649 66.3135 103.649C66.8135 103.649 67.251 103.462 67.5635 103.149C67.9386 102.774 68.1261 102.399 68.1261 101.899C68.1261 101.211 67.9386 100.649 67.626 100.149C67.3135 99.6488 66.9385 99.3988 66.376 99.3988Z" fill="#68C5ED"/>
</g>
<path d="M23.7075 60.2198H19.0995V64.9718H22.8195V67.3238H19.0995V72.3158H23.7075V74.6678H16.5555V57.8678H23.7075V60.2198ZM30.9242 66.0518L34.1402 74.6678H31.4522L29.3642 68.7638H29.3162L27.3482 74.6678H24.7082L27.9242 65.9558L24.9002 57.8678H27.5882L29.4602 63.2198H29.5082L31.3082 57.8678H33.9482L30.9242 66.0518ZM39.1644 57.6278C41.6604 57.6278 43.1244 59.1158 43.1244 61.6598V63.1718L40.6764 63.2918V61.9238C40.6764 60.5798 40.1724 59.9798 39.2364 59.9798C38.3004 59.9798 37.7964 60.5798 37.7964 61.6838V70.8518C37.7964 71.9558 38.3004 72.5558 39.2364 72.5558C40.1724 72.5558 40.6764 71.9558 40.6764 70.6118V68.7398L43.1244 68.8598V70.8758C43.1244 73.4198 41.6604 74.9078 39.1644 74.9078C36.6924 74.9078 35.2524 73.4198 35.2524 70.8758V61.6598C35.2524 59.1158 36.6924 57.6278 39.1644 57.6278ZM52.4419 60.2198H47.8339V64.9718H51.5539V67.3238H47.8339V72.3158H52.4419V74.6678H45.2899V57.8678H52.4419V60.2198ZM57.1386 72.2678H61.3866V74.6678H54.5946V57.8678H57.1386V72.2678ZM65.5526 72.2678H69.8006V74.6678H63.0086V57.8678H65.5526V72.2678ZM78.5747 60.2198H73.9667V64.9718H77.6867V67.3238H73.9667V72.3158H78.5747V74.6678H71.4227V57.8678H78.5747V60.2198ZM89.0074 74.6678H86.5114L83.1754 63.5318H83.1274V74.6678H80.7274V57.8678H83.5594L86.5594 67.8758H86.6074V57.8678H89.0074V74.6678ZM98.583 60.2678H95.871V74.6678H93.327V60.2678H90.615V57.8678H98.583V60.2678Z" fill="white"/>
<defs>
<clipPath id="clip0_5369_6786">
<rect width="114" height="140" fill="white" transform="translate(0 0.5)"/>
</clipPath>
</defs>
</svg>
