<svg width="125" height="140" viewBox="0 0 125 140" fill="none" xmlns="http://www.w3.org/2000/svg">
<g clip-path="url(#clip0_5520_3921)">
<path d="M10.3606 108.993L63.5091 135.973L114.639 108.993V3.48999H10.3606V108.993Z" fill="white"/>
<path d="M115.716 3.89258L9.28418 110.872L64.451 138.121L115.716 111.946V3.89258Z" fill="#F2F3F2"/>
<path d="M6.8623 38.6577V111.275L8.74605 112.215L61.8946 139.195L63.5092 140L65.1239 139.195L116.389 112.215L118.272 111.275V0H6.8623V38.6577ZM10.3607 109.262V3.48993H114.774V109.262L63.5092 136.242L10.3607 109.262Z" fill="#DCDEDC"/>
<path d="M62.5673 5.2349C63.1055 5.2349 63.6437 5.2349 64.1819 5.36913L62.5673 8.45638C60.1453 8.32215 57.9925 10.2013 57.8579 12.6174C57.7234 15.0336 59.6071 17.1812 62.0291 17.3154H62.5673C63.6437 17.3154 64.7201 16.9128 65.5275 16.2416L67.2766 19.1946C65.9311 20.1342 64.3165 20.6711 62.5673 20.6711C58.2616 20.8054 54.6286 17.5839 54.4941 13.2886C54.3595 8.99329 57.5888 5.36913 61.8945 5.2349H62.5673ZM68.084 11.8121L70.1023 15.1678L68.084 18.3893L66.2002 15.1678H62.2982L64.3165 11.8121H68.084ZM64.8547 10.604C64.8547 10.0671 64.9892 9.5302 65.2583 9.12752C65.5274 8.72483 66.0657 8.32215 66.4693 8.05369L66.7384 7.91946C67.2766 7.65101 67.4112 7.51678 67.4112 7.24832C67.4112 6.97987 67.0075 6.71141 66.7384 6.71141C66.2002 6.71141 65.7966 6.97987 65.5275 7.51678L64.8547 6.84564C64.9892 6.57718 65.2583 6.30872 65.5275 6.04027C65.9311 5.77181 66.3348 5.77181 66.7384 5.77181C67.1421 5.77181 67.6803 5.90604 67.9494 6.1745C68.2185 6.44295 68.4876 6.84564 68.4876 7.24832C68.4876 7.91946 68.084 8.45638 67.2766 8.72483L66.873 8.99329C66.4693 9.26174 66.2002 9.39597 66.0657 9.79866H68.4876V10.7383L64.8547 10.604ZM62.5673 27.3825L75.3498 20.1342V0H49.6502V20L62.5673 27.3825ZM120.829 74.8993H4.30571L0 84.2953L4.30571 93.6913H120.829L125 84.2953L120.829 74.8993Z" fill="#FF492C"/>
<path d="M22.7395 54.7517C23.6275 54.7517 24.4079 54.9262 25.0807 55.2886C25.7535 55.651 26.2782 56.1611 26.6415 56.8322C27.0048 57.4899 27.1932 58.255 27.1932 59.1141C27.1932 59.9732 27.0048 60.7114 26.6281 61.3557C26.2379 61.9866 25.6996 62.4832 25.0134 62.8456C24.3272 63.2081 23.5199 63.3826 22.6184 63.3826H19.7524C19.7524 63.3826 19.6582 63.4228 19.6582 63.4899V68.6175C19.6582 68.6846 19.6313 68.7517 19.5775 68.792C19.5371 68.8322 19.4698 68.8591 19.4025 68.8591H17.0479C16.9806 68.8591 16.9133 68.8322 16.8729 68.792C16.8326 68.7517 16.8057 68.6846 16.8057 68.6175V54.9933C16.8057 54.9262 16.8326 54.8591 16.8729 54.8188C16.9133 54.7785 16.9806 54.7517 17.0479 54.7517H22.7395ZM22.3089 61.1141C22.9413 61.1141 23.4391 60.9396 23.8024 60.5772C24.1792 60.2148 24.3676 59.7584 24.3676 59.1812C24.3676 58.604 24.1792 58.1074 23.8024 57.745C23.4391 57.3826 22.9413 57.1946 22.3089 57.1946H19.7524C19.7524 57.1946 19.6582 57.2349 19.6582 57.302V61.0067C19.6582 61.0738 19.6851 61.1141 19.7524 61.1141H22.3089ZM37.3789 62.6175C37.4461 63.1275 37.473 63.6913 37.4461 64.3222C37.4461 64.4967 37.3519 64.5772 37.1905 64.5772H30.9607C30.8799 64.5772 30.853 64.604 30.8665 64.6712C30.9068 64.9396 30.9876 65.2081 31.0952 65.4765C31.4451 66.2282 32.1582 66.604 33.2346 66.604C34.0958 66.604 34.7685 66.2416 35.2664 65.5571C35.3336 65.4765 35.3875 65.4363 35.4548 65.4363C35.4951 65.4363 35.5355 65.4631 35.5893 65.5168L37.0425 66.9396C37.1098 67.0067 37.1501 67.0738 37.1501 67.1275C37.1501 67.1544 37.1232 67.2081 37.0694 67.2886C36.6254 67.8389 36.0468 68.2685 35.3606 68.5638C34.6474 68.8725 33.8805 69.0201 33.0462 69.0201C31.9025 69.0201 30.9203 68.7651 30.113 68.2416C29.3191 67.7181 28.7405 66.9799 28.3907 66.0403C28.1081 65.3691 27.9601 64.4967 27.9601 63.4094C27.9601 62.6712 28.0678 62.0134 28.2696 61.4497C28.5791 60.4967 29.1307 59.745 29.8977 59.1812C30.6647 58.6175 31.5796 58.3356 32.6426 58.3356C33.9881 58.3356 35.0645 58.7248 35.8853 59.5034C36.7061 60.2819 37.2039 61.3154 37.3789 62.6175ZM32.6695 60.792C31.8218 60.792 31.2567 61.1812 30.9876 61.9732C30.9338 62.1477 30.8934 62.3624 30.853 62.6175C30.853 62.6846 30.8934 62.7114 30.9607 62.7114H34.4456C34.5263 62.7114 34.5532 62.6846 34.5263 62.6175C34.4591 62.2282 34.4187 62.0403 34.4187 62.0537C34.2976 61.651 34.0958 61.3423 33.7863 61.1141C33.4903 60.8993 33.1135 60.792 32.6695 60.792ZM44.3756 58.3759C44.86 58.3759 45.2502 58.4698 45.5328 58.6577C45.627 58.7114 45.6673 58.8054 45.6404 58.953L45.2233 61.2483C45.2233 61.4094 45.1157 61.4631 44.9408 61.396C44.7389 61.3289 44.4967 61.2886 44.2411 61.2886C44.1334 61.2886 43.9854 61.2886 43.7836 61.3289C43.3127 61.3691 42.8955 61.5571 42.5592 61.8658C42.2228 62.1745 42.0613 62.604 42.0613 63.1275V68.6175C42.0613 68.6846 42.0344 68.7517 41.9806 68.792C41.9402 68.8322 41.8864 68.8591 41.8191 68.8591H39.451C39.451 68.8591 39.3299 68.8322 39.2761 68.792C39.2357 68.7517 39.2088 68.6846 39.2088 68.6175V58.7517C39.2088 58.7517 39.2357 58.6309 39.2761 58.5772C39.3299 58.5369 39.3837 58.5101 39.451 58.5101H41.8191C41.8191 58.5101 41.9402 58.5369 41.9806 58.5772C42.0344 58.6309 42.0613 58.6846 42.0613 58.7517V59.5168C42.0613 59.5168 42.0748 59.5839 42.1017 59.5973C42.1151 59.6108 42.142 59.5973 42.1555 59.5705C42.7072 58.7785 43.4472 58.3759 44.3756 58.3759ZM52.9736 58.4967C53.0409 58.4967 53.1081 58.5235 53.1485 58.5638C53.1889 58.604 53.2158 58.6711 53.2158 58.7383V60.6443C53.2158 60.7114 53.1889 60.7785 53.1485 60.8188C53.1081 60.8591 53.0409 60.8859 52.9736 60.8859H51.0226C50.9553 60.8859 50.9149 60.9128 50.9149 60.9799V68.6175C50.9149 68.6846 50.888 68.7517 50.8476 68.792C50.8073 68.8322 50.74 68.8591 50.6727 68.8591H48.318C48.2508 68.8591 48.1835 68.8322 48.1431 68.792C48.1028 68.7517 48.0758 68.6846 48.0758 68.6175V60.9799C48.0758 60.9799 48.0355 60.8859 47.9682 60.8859H46.7841C46.7169 60.8859 46.6496 60.8591 46.6092 60.8188C46.5688 60.7785 46.5419 60.7114 46.5419 60.6443V58.7383C46.5419 58.6711 46.5688 58.604 46.6092 58.5638C46.6496 58.5235 46.7169 58.4967 46.7841 58.4967H47.9682C48.0355 58.4967 48.0758 58.4564 48.0758 58.3893V57.9463C48.0758 57.1141 48.1969 56.4698 48.4526 56C48.7082 55.5436 49.1254 55.2215 49.6905 55.0201C50.2691 54.8188 51.0629 54.7383 52.0721 54.7651H52.839C52.839 54.7651 52.9601 54.792 53.0005 54.8322C53.0543 54.8859 53.0812 54.9396 53.0812 55.0067V56.6309C53.0812 56.698 53.0543 56.7651 53.0005 56.8054C52.9601 56.8591 52.9063 56.8859 52.839 56.8859H52.1663C51.6953 56.8859 51.3724 56.9933 51.184 57.1678C51.0091 57.3557 50.9149 57.6913 50.9149 58.1745V58.3893C50.9149 58.4564 50.9553 58.4967 51.0226 58.4967H52.9736ZM58.8267 69.0201C57.6964 69.0201 56.7276 68.7248 55.9203 68.1342C55.113 67.5436 54.5613 66.7383 54.2653 65.7181C54.0769 65.0873 53.9827 64.4027 53.9827 63.6644C53.9827 62.8725 54.0769 62.1611 54.2653 61.5302C54.5748 60.5369 55.1399 59.7584 55.9472 59.1946C56.7545 58.6309 57.7233 58.349 58.8536 58.349C59.9838 58.349 60.8853 58.6309 61.6792 59.1812C62.4461 59.745 62.9978 60.5235 63.3207 61.5168C63.5495 62.1879 63.6571 62.8859 63.6571 63.6242C63.6571 64.349 63.5629 65.0336 63.3746 65.6644C63.0785 66.7114 62.5269 67.5302 61.7195 68.1208C60.9257 68.7248 59.9569 69.0201 58.8267 69.0201ZM58.8267 66.5906C59.2707 66.5906 59.6474 66.4564 59.9569 66.1879C60.2664 65.9195 60.4951 65.5436 60.6297 65.0738C60.7239 64.6443 60.7777 64.1745 60.7777 63.6644C60.7777 63.1007 60.7239 62.6309 60.6297 62.2416C60.4817 61.7852 60.2529 61.4228 59.9434 61.1678C59.634 60.9128 59.2438 60.792 58.7997 60.792C58.3557 60.792 57.979 60.9128 57.6695 61.1678C57.36 61.4228 57.1447 61.7852 57.0102 62.2416C56.9025 62.5503 56.8487 63.0336 56.8487 63.6644C56.8487 64.2953 56.9025 64.7383 56.9967 65.0738C57.1313 65.5436 57.36 65.9195 57.6695 66.1879C57.979 66.4564 58.3692 66.5906 58.8267 66.5906ZM70.6539 58.3759C71.1383 58.3759 71.5285 58.4698 71.811 58.6577C71.9187 58.7114 71.9591 58.8054 71.9187 58.953L71.5016 61.2483C71.5016 61.4094 71.3939 61.4631 71.219 61.396C71.0172 61.3289 70.775 61.2886 70.5193 61.2886C70.4117 61.2886 70.2637 61.2886 70.0753 61.3289C69.5909 61.3691 69.1738 61.5571 68.8374 61.8658C68.501 62.1745 68.3396 62.604 68.3396 63.1275V68.6175C68.3396 68.6846 68.3127 68.7517 68.2588 68.792C68.2185 68.8322 68.1512 68.8591 68.0839 68.8591H65.7292C65.7292 68.8591 65.6081 68.8322 65.5543 68.792C65.514 68.7517 65.487 68.6846 65.487 68.6175V58.7517C65.487 58.7517 65.514 58.6309 65.5543 58.5772C65.6081 58.5369 65.662 58.5101 65.7292 58.5101H68.0839C68.1512 58.5101 68.2185 58.5369 68.2588 58.5772C68.3127 58.6309 68.3396 58.6846 68.3396 58.7517V59.5168C68.3396 59.5168 68.3396 59.5839 68.3665 59.5973C68.4068 59.6108 68.4203 59.5973 68.4338 59.5705C68.9854 58.7785 69.7255 58.3759 70.6539 58.3759ZM84.7147 58.349C85.7642 58.349 86.585 58.6577 87.177 59.2886C87.7691 59.9195 88.0651 60.8188 88.0651 61.9597V68.6175C88.0651 68.6846 88.0382 68.7517 87.9978 68.792C87.9574 68.8322 87.9036 68.8591 87.8363 68.8591H85.4682C85.4682 68.8591 85.3471 68.8322 85.2933 68.792C85.2529 68.7517 85.226 68.6846 85.226 68.6175V62.5772C85.226 62.0269 85.0915 61.5973 84.8089 61.2752C84.5263 60.953 84.1361 60.792 83.6652 60.792C83.1943 60.792 82.8175 60.953 82.5215 61.2752C82.2255 61.5973 82.0775 62.0269 82.0775 62.5638V68.6175C82.0775 68.6846 82.0505 68.7517 82.0102 68.792C81.9564 68.8322 81.9025 68.8591 81.8353 68.8591H79.494C79.4268 68.8591 79.3595 68.8322 79.3191 68.792C79.2788 68.7517 79.2518 68.6846 79.2518 68.6175V62.5772C79.2518 62.0403 79.1038 61.6108 78.8078 61.2752C78.5118 60.953 78.1216 60.792 77.6507 60.792C77.2335 60.792 76.8702 60.9128 76.5742 61.1678C76.2917 61.4228 76.1167 61.7852 76.0629 62.2416V68.6175C76.0629 68.6846 76.036 68.7517 75.9956 68.792C75.9418 68.8322 75.888 68.8591 75.8207 68.8591H73.466C73.3988 68.8591 73.3315 68.8322 73.2911 68.792C73.2508 68.7517 73.2239 68.6846 73.2239 68.6175V58.7517C73.2239 58.7517 73.2508 58.6309 73.2911 58.5772C73.3315 58.5369 73.3988 58.5101 73.466 58.5101H75.8207C75.8207 58.5101 75.9418 58.5369 75.9956 58.5772C76.036 58.6309 76.0629 58.6846 76.0629 58.7517V59.5436C76.0629 59.5436 76.0764 59.6107 76.1033 59.6242C76.1302 59.6242 76.1571 59.6242 76.184 59.5705C76.7357 58.7517 77.5968 58.349 78.754 58.349C79.4268 58.349 80.0188 58.4967 80.5166 58.7785C81.0145 59.0604 81.4047 59.4631 81.6738 59.9866C81.7142 60.0671 81.7545 60.0671 81.8218 59.9866C82.1044 59.4363 82.508 59.0201 83.0193 58.7517C83.5172 58.4832 84.0823 58.349 84.7147 58.349ZM99.1926 62.6175C99.2734 63.1275 99.3003 63.6913 99.2734 64.3222C99.2599 64.4967 99.1657 64.5772 99.0043 64.5772H92.7744C92.6937 64.5772 92.6668 64.604 92.6937 64.6712C92.7341 64.9396 92.8014 65.2081 92.909 65.4765C93.2588 66.2282 93.972 66.604 95.0484 66.604C95.9095 66.604 96.5958 66.2416 97.0936 65.5571C97.1474 65.4765 97.2012 65.4363 97.2685 65.4363C97.3089 65.4363 97.3627 65.4631 97.4165 65.5168L98.8697 66.9396C98.937 67.0067 98.9639 67.0738 98.9639 67.1275C98.9639 67.1544 98.937 67.2081 98.8832 67.2886C98.4391 67.8389 97.874 68.2685 97.1743 68.5638C96.4747 68.8725 95.7077 69.0201 94.8735 69.0201C93.7163 69.0201 92.7341 68.7651 91.9402 68.2416C91.1329 67.7181 90.5543 66.9799 90.2045 66.0403C89.9219 65.3691 89.7874 64.4967 89.7874 63.4094C89.7874 62.6712 89.8815 62.0134 90.0834 61.4497C90.3929 60.4967 90.9445 59.745 91.7115 59.1812C92.4784 58.6175 93.4068 58.3356 94.4698 58.3356C95.8154 58.3356 96.8918 58.7248 97.7126 59.5034C98.5333 60.2819 99.0177 61.3154 99.1926 62.6175ZM94.4833 60.792C93.6356 60.792 93.0839 61.1812 92.8148 61.9732C92.761 62.1477 92.7072 62.3624 92.6668 62.6175C92.6668 62.6846 92.7072 62.7114 92.7744 62.7114H96.2594C96.3401 62.7114 96.367 62.6846 96.3401 62.6175C96.2728 62.2282 96.2459 62.0403 96.2459 62.0537C96.1248 61.651 95.9095 61.3423 95.6135 61.1141C95.304 60.8993 94.9273 60.792 94.4833 60.792ZM106.189 58.3759C106.674 58.3759 107.064 58.4698 107.347 58.6577C107.454 58.7114 107.495 58.8054 107.468 58.953L107.051 61.2483C107.037 61.4094 106.929 61.4631 106.755 61.396C106.553 61.3289 106.324 61.2886 106.055 61.2886C105.947 61.2886 105.799 61.2886 105.611 61.3289C105.126 61.3691 104.709 61.5571 104.373 61.8658C104.037 62.1745 103.875 62.604 103.875 63.1275V68.6175C103.875 68.6846 103.848 68.7517 103.808 68.792C103.754 68.8322 103.7 68.8591 103.633 68.8591H101.265C101.265 68.8591 101.144 68.8322 101.103 68.792C101.049 68.7517 101.023 68.6846 101.023 68.6175V58.7517C101.023 58.7517 101.049 58.6309 101.103 58.5772C101.144 58.5369 101.197 58.5101 101.265 58.5101H103.633C103.633 58.5101 103.754 58.5369 103.808 58.5772C103.848 58.6309 103.875 58.6846 103.875 58.7517V59.5168C103.875 59.5168 103.875 59.5839 103.915 59.5973C103.942 59.6108 103.969 59.5973 103.983 59.5705C104.534 58.7785 105.261 58.3759 106.189 58.3759ZM50.6727 34.8725C50.6727 34.8725 50.6996 34.7517 50.74 34.698C50.7804 34.6577 50.8342 34.6309 50.9015 34.6309H53.2696C53.2696 34.6309 53.3907 34.6577 53.4445 34.698C53.4849 34.7517 53.5118 34.8054 53.5118 34.8725V48.4832C53.5118 48.5503 53.4849 48.6175 53.4445 48.6577C53.3907 48.698 53.3369 48.7248 53.2696 48.7248H50.9015C50.9015 48.7248 50.7804 48.698 50.74 48.6577C50.6996 48.6175 50.6727 48.5503 50.6727 48.4832V42.9262C50.6727 42.9262 50.6324 42.8322 50.5651 42.8322H46.0979C46.0979 42.8322 46.0037 42.8591 46.0037 42.9262V48.4832C46.0037 48.5503 45.9768 48.6175 45.9364 48.6577C45.8826 48.698 45.8288 48.7248 45.7615 48.7248H43.3934C43.3934 48.7248 43.2723 48.698 43.2319 48.6577C43.1781 48.6175 43.1512 48.5503 43.1512 48.4832V34.8725C43.1512 34.8725 43.1781 34.7517 43.2319 34.698C43.2723 34.6577 43.3261 34.6309 43.3934 34.6309H45.7615C45.7615 34.6309 45.8826 34.6577 45.9364 34.698C45.9768 34.7517 46.0037 34.8054 46.0037 34.8725V40.2819C46.0037 40.349 46.0306 40.3893 46.0979 40.3893H50.5651C50.6324 40.3893 50.6727 40.349 50.6727 40.2819V34.8725ZM57.1851 37.2081C56.7276 37.2081 56.3509 37.0604 56.0414 36.7517C55.7319 36.4564 55.5839 36.0805 55.5839 35.6242C55.5839 35.1678 55.7319 34.7651 56.0279 34.4698C56.324 34.1745 56.7142 34.0269 57.1851 34.0269C57.656 34.0269 58.0462 34.1745 58.3423 34.4698C58.6383 34.7651 58.7863 35.1544 58.7863 35.6242C58.7863 36.094 58.6383 36.4564 58.3288 36.7517C58.0193 37.0604 57.6426 37.2081 57.1851 37.2081ZM55.9741 48.7248C55.9741 48.7248 55.853 48.698 55.7992 48.6577C55.7588 48.6175 55.7319 48.5503 55.7319 48.4832V38.604C55.7319 38.5369 55.7588 38.4698 55.7992 38.4295C55.853 38.3893 55.9068 38.3624 55.9741 38.3624H58.3423C58.3423 38.3624 58.4634 38.3893 58.5037 38.4295C58.5575 38.4698 58.5845 38.5369 58.5845 38.604V48.4832C58.5845 48.5503 58.5575 48.6175 58.5037 48.6577C58.4634 48.698 58.4095 48.7248 58.3423 48.7248H55.9741ZM67.1286 38.6175C67.1286 38.6175 67.1555 38.4967 67.2093 38.443C67.2497 38.4027 67.3035 38.3758 67.3708 38.3758H69.7389C69.7389 38.3758 69.86 38.4027 69.9138 38.443C69.9542 38.4967 69.9811 38.5503 69.9811 38.6175V47.7987C69.9811 49.5571 69.4698 50.8054 68.4607 51.5571C67.4515 52.3222 66.1329 52.698 64.5317 52.698C64.0608 52.698 63.536 52.6577 62.9574 52.5906C62.8229 52.5772 62.7556 52.4832 62.7556 52.3356L62.8363 50.255C62.8363 50.0805 62.9305 50 63.1189 50.0269C63.6033 50.1074 64.0473 50.1477 64.451 50.1477C65.3121 50.1477 65.9714 49.9597 66.4424 49.5973C66.8998 49.2081 67.1286 48.604 67.1286 47.7852C67.1286 47.745 67.1151 47.7181 67.0882 47.7047C67.0613 47.7047 67.0344 47.7047 67.0075 47.745C66.4962 48.2953 65.7561 48.5638 64.7739 48.5638C63.8993 48.5638 63.092 48.349 62.3654 47.9329C61.6254 47.5168 61.1006 46.8322 60.7911 45.8926C60.5893 45.2752 60.4951 44.4698 60.4951 43.4899C60.4951 42.443 60.6162 41.5973 60.8584 40.9396C61.141 40.1208 61.6119 39.4631 62.2847 38.9665C62.9574 38.4698 63.7379 38.2148 64.6394 38.2148C65.6754 38.2148 66.4558 38.5235 67.0075 39.1409C67.0344 39.1678 67.0613 39.1812 67.0882 39.1678C67.1151 39.1678 67.1286 39.1409 67.1286 39.1007V38.6175ZM66.9671 45.1141C67.0748 44.7248 67.1286 44.1745 67.1286 43.4631C67.1286 43.047 67.1151 42.7383 67.0882 42.5101C67.0613 42.2819 67.0209 42.0537 66.9537 41.8524C66.8326 41.4899 66.6307 41.2081 66.3482 40.9799C66.0656 40.7651 65.7158 40.6577 65.2987 40.6577C64.8815 40.6577 64.5586 40.7651 64.2761 40.9799C63.9935 41.2081 63.7782 41.4899 63.6437 41.8524C63.4553 42.255 63.3611 42.8054 63.3611 43.4899C63.3611 44.2416 63.4418 44.7785 63.6033 45.1007C63.7244 45.4631 63.9262 45.7584 64.2357 45.9732C64.5452 46.2014 64.895 46.3087 65.3121 46.3087C65.7427 46.3087 66.106 46.2014 66.3885 45.9732C66.6711 45.7584 66.8595 45.4765 66.9671 45.1141ZM77.4354 38.2148C78.5118 38.2148 79.3729 38.5503 80.0322 39.2081C80.6916 39.8658 81.0145 40.7517 81.0145 41.8792V48.4832C81.0145 48.5503 80.9876 48.6175 80.9472 48.6577C80.9068 48.698 80.853 48.7248 80.7858 48.7248H78.4176C78.4176 48.7248 78.2965 48.698 78.2427 48.6577C78.2023 48.6175 78.1754 48.5503 78.1754 48.4832V42.4564C78.1754 41.9329 78.0274 41.4899 77.7179 41.1544C77.4219 40.8188 77.0183 40.6577 76.5204 40.6577C76.0226 40.6577 75.6324 40.8188 75.3229 41.1544C75.0134 41.4899 74.8654 41.9329 74.8654 42.4564V48.4832C74.8654 48.5503 74.8385 48.6175 74.7981 48.6577C74.7578 48.698 74.6905 48.7248 74.6232 48.7248H72.2685C72.2012 48.7248 72.134 48.698 72.0936 48.6577C72.0532 48.6175 72.0263 48.5503 72.0263 48.4832V34.8725C72.0263 34.8725 72.0532 34.7517 72.0936 34.698C72.134 34.6577 72.2012 34.6309 72.2685 34.6309H74.6232C74.6905 34.6309 74.7578 34.6577 74.7981 34.698C74.8385 34.7517 74.8654 34.8054 74.8654 34.8725V39.3289C74.8654 39.3289 74.8654 39.396 74.9058 39.4094C74.9327 39.4094 74.9461 39.4094 74.9596 39.3826C75.5113 38.604 76.3455 38.2148 77.4354 38.2148Z" fill="#252530"/>
<path d="M40.4468 89.6376C39.7471 89.6376 39.1416 89.5302 38.6169 89.302C38.0921 89.0738 37.6884 88.7651 37.4059 88.3624C37.1233 87.9597 36.9888 87.4899 36.9888 86.9396V86.604C36.9888 86.604 37.0022 86.5235 37.0426 86.4832C37.0695 86.4564 37.1099 86.443 37.1502 86.443H38.3478C38.3478 86.443 38.4285 86.4564 38.4689 86.4832C38.4958 86.5235 38.5092 86.5638 38.5092 86.604V86.8591C38.5092 87.2752 38.6976 87.6108 39.0609 87.8792C39.4242 88.1611 39.9355 88.2953 40.5679 88.2953C41.1196 88.2953 41.5232 88.1745 41.8058 87.9463C42.0883 87.7181 42.2229 87.4094 42.2229 87.047C42.2229 86.792 42.1422 86.5772 41.9942 86.4027C41.8461 86.2282 41.6309 86.0805 41.3483 85.9329C41.0657 85.7852 40.6352 85.6107 40.07 85.396C39.4376 85.1678 38.9129 84.9396 38.5227 84.7383C38.1325 84.5369 37.7961 84.255 37.5404 83.8926C37.2713 83.5436 37.1368 83.1007 37.1368 82.5772C37.1368 81.7852 37.4193 81.1678 37.9979 80.7114C38.5765 80.255 39.3435 80.0269 40.2988 80.0269C40.9715 80.0269 41.5636 80.1477 42.0883 80.3759C42.5996 80.604 43.0033 80.9396 43.2859 81.3557C43.5684 81.7718 43.7164 82.2416 43.7164 82.792V83.0201C43.7164 83.0201 43.703 83.1007 43.6626 83.1409C43.6357 83.1678 43.5953 83.1812 43.555 83.1812H42.344C42.344 83.1812 42.2633 83.1678 42.2363 83.1409C42.196 83.1007 42.1825 83.0604 42.1825 83.0201V82.8725C42.1825 82.4564 42.0076 82.094 41.6712 81.8121C41.3214 81.5168 40.837 81.3691 40.2315 81.3691C39.7337 81.3691 39.3569 81.4765 39.0878 81.6779C38.8052 81.8792 38.6707 82.1745 38.6707 82.5503C38.6707 82.8188 38.738 83.0336 38.886 83.2081C39.034 83.3826 39.2493 83.5302 39.5318 83.6644C39.8144 83.8121 40.2584 83.9866 40.8639 84.2014C41.4963 84.443 42.0076 84.6577 42.3978 84.8591C42.7746 85.0604 43.0975 85.3289 43.3801 85.6779C43.6492 86.0403 43.7837 86.4832 43.7837 87.0067C43.7837 87.8121 43.4877 88.4564 42.8822 88.9262C42.2902 89.396 41.4828 89.6376 40.4468 89.6376ZM48.6545 89.6376C47.9952 89.6376 47.4032 89.5034 46.8919 89.2483C46.3806 88.9933 45.9904 88.6175 45.7078 88.1477C45.4253 87.6644 45.2773 87.1141 45.2773 86.4832V80.2953C45.2773 80.2953 45.2907 80.2148 45.3311 80.1879C45.358 80.1477 45.3984 80.1342 45.4387 80.1342H46.6766C46.6766 80.1342 46.7573 80.1477 46.7977 80.1879C46.8246 80.2148 46.8381 80.255 46.8381 80.2953V86.5101C46.8381 87.0336 46.9995 87.4631 47.3359 87.7987C47.6723 88.1342 48.1029 88.2953 48.6545 88.2953C49.2062 88.2953 49.6368 88.1342 49.9732 87.7987C50.3095 87.4631 50.471 87.0336 50.471 86.5101V80.2953C50.471 80.2953 50.4845 80.2148 50.5248 80.1879C50.5517 80.1477 50.5921 80.1342 50.6325 80.1342H51.8704C51.8704 80.1342 51.9511 80.1477 51.9915 80.1879C52.0184 80.2148 52.0318 80.255 52.0318 80.2953V86.4832C52.0318 87.1141 51.8973 87.6644 51.6147 88.1477C51.3322 88.6175 50.9419 88.9933 50.4306 89.2483C49.9193 89.5034 49.3273 89.6376 48.6545 89.6376ZM59.9839 80.2416C60.0243 80.1745 60.0916 80.1342 60.1723 80.1342H61.4102C61.4102 80.1342 61.4909 80.1477 61.5313 80.1879C61.5582 80.2148 61.5717 80.255 61.5717 80.2953V89.3691C61.5717 89.3691 61.5717 89.4497 61.5313 89.4765C61.4909 89.5168 61.4506 89.5302 61.4102 89.5302H60.1723C60.1723 89.5302 60.0916 89.5168 60.0512 89.4765C60.0243 89.4497 60.0108 89.4094 60.0108 89.3691V82.9665C60.0108 82.9665 59.9974 82.9262 59.9705 82.9128C59.957 82.9128 59.9436 82.9128 59.9301 82.9396L58.2482 85.5168C58.2078 85.5839 58.1405 85.6242 58.0598 85.6242H57.4409C57.3601 85.6242 57.2929 85.5839 57.2525 85.5168L55.5571 82.953C55.5571 82.953 55.5302 82.9128 55.5033 82.9262C55.4898 82.9262 55.4764 82.953 55.4764 82.9799V89.3691C55.4764 89.3691 55.4629 89.4497 55.436 89.4765C55.3957 89.5168 55.3553 89.5302 55.3149 89.5302H54.077C54.077 89.5302 53.9963 89.5168 53.9694 89.4765C53.929 89.4497 53.9156 89.4094 53.9156 89.3691V80.2953C53.9156 80.2953 53.929 80.2148 53.9694 80.1879C53.9963 80.1477 54.0367 80.1342 54.077 80.1342H55.3149C55.3957 80.1342 55.4629 80.1745 55.5033 80.2416L57.6965 83.5571C57.6965 83.5571 57.7369 83.5839 57.7503 83.5839C57.7638 83.5839 57.7773 83.5839 57.7907 83.5571L59.9839 80.2416ZM69.6045 80.2416C69.6448 80.1745 69.7121 80.1342 69.7929 80.1342H71.0308C71.0308 80.1342 71.1115 80.1477 71.1384 80.1879C71.1788 80.2148 71.1922 80.255 71.1922 80.2953V89.3691C71.1922 89.3691 71.1788 89.4497 71.1384 89.4765C71.1115 89.5168 71.0711 89.5302 71.0308 89.5302H69.7929C69.7929 89.5302 69.7121 89.5168 69.6852 89.4765C69.6449 89.4497 69.6314 89.4094 69.6314 89.3691V82.9665C69.6314 82.9665 69.6314 82.9262 69.6045 82.9128C69.5776 82.9128 69.5641 82.9128 69.5507 82.9396L67.8687 85.5168C67.8284 85.5839 67.7611 85.6242 67.6804 85.6242H67.0614C66.9807 85.6242 66.9134 85.5839 66.8731 85.5168L65.1777 82.953C65.1777 82.953 65.1508 82.9128 65.1373 82.9262C65.1104 82.9262 65.097 82.953 65.097 82.9799V89.3691C65.097 89.3691 65.0969 89.4497 65.0566 89.4765C65.0162 89.5168 64.9758 89.5302 64.9355 89.5302H63.6976C63.6976 89.5302 63.6169 89.5168 63.59 89.4765C63.5496 89.4497 63.5361 89.4094 63.5361 89.3691V80.2953C63.5361 80.2953 63.5496 80.2148 63.59 80.1879C63.6169 80.1477 63.6572 80.1342 63.6976 80.1342H64.9355C65.0162 80.1342 65.0835 80.1745 65.1239 80.2416L67.3171 83.5571C67.3171 83.5571 67.3574 83.5839 67.3709 83.5839C67.3844 83.5839 67.3978 83.5839 67.4113 83.5571L69.6045 80.2416ZM79.5345 81.3154C79.5345 81.3154 79.5345 81.396 79.4942 81.4228C79.4538 81.4631 79.4134 81.4765 79.3731 81.4765H74.7848C74.7848 81.4765 74.7175 81.5034 74.7175 81.5436V84.0537C74.7175 84.0537 74.7444 84.1208 74.7848 84.1208H77.8661C77.8661 84.1208 77.9468 84.1208 77.9872 84.1611C78.0141 84.2014 78.0275 84.2416 78.0275 84.2819V85.302C78.0275 85.302 78.0275 85.3826 77.9872 85.4228C77.9468 85.4497 77.9064 85.4631 77.8661 85.4631H74.7848C74.7848 85.4631 74.7175 85.4899 74.7175 85.5302V88.1208C74.7175 88.1208 74.7444 88.1879 74.7848 88.1879H79.3731C79.3731 88.1879 79.4538 88.2014 79.4942 88.2416C79.5211 88.2685 79.5345 88.3087 79.5345 88.349V89.3691C79.5345 89.3691 79.5345 89.4497 79.4942 89.4765C79.4538 89.5168 79.4134 89.5302 79.3731 89.5302H73.3182C73.3182 89.5302 73.2374 89.5168 73.2105 89.4765C73.1701 89.4497 73.1567 89.4094 73.1567 89.3691V80.2953C73.1567 80.2953 73.1701 80.2148 73.2105 80.1879C73.2374 80.1477 73.2778 80.1342 73.3182 80.1342H79.3731C79.3731 80.1342 79.4538 80.1477 79.4942 80.1879C79.5211 80.2148 79.5345 80.255 79.5345 80.2953V81.3154ZM86.4102 89.5302C86.316 89.5302 86.2622 89.4899 86.2218 89.4094L84.4457 85.5436C84.4457 85.5436 84.4053 85.4899 84.365 85.4899H82.7503C82.7503 85.4899 82.6831 85.5168 82.6831 85.5571V89.3691C82.6831 89.3691 82.6696 89.4497 82.6292 89.4765C82.6023 89.5168 82.562 89.5302 82.5216 89.5302H81.2837C81.2837 89.5302 81.203 89.5168 81.1761 89.4765C81.1357 89.4497 81.1222 89.4094 81.1222 89.3691V80.2953C81.1222 80.2953 81.1357 80.2148 81.1761 80.1879C81.203 80.1477 81.2433 80.1342 81.2837 80.1342H84.9839C85.5356 80.1342 86.02 80.2416 86.4371 80.4698C86.8542 80.698 87.1906 81.0201 87.4193 81.4363C87.6481 81.8524 87.7692 82.3356 87.7692 82.8725C87.7692 83.4899 87.6077 84.0134 87.2848 84.443C86.9753 84.8859 86.5313 85.1812 85.9662 85.3557C85.9527 85.3557 85.9393 85.3557 85.9258 85.3826C85.9258 85.396 85.9258 85.4228 85.9258 85.4363L87.823 89.3423C87.823 89.3423 87.8499 89.4094 87.8499 89.4228C87.8499 89.4899 87.7961 89.5302 87.7019 89.5302H86.4102ZM82.7503 81.4765C82.7503 81.4765 82.6831 81.5034 82.6831 81.5436V84.2148C82.6831 84.2148 82.71 84.2819 82.7503 84.2819H84.7686C85.1992 84.2819 85.549 84.1477 85.8047 83.8926C86.0738 83.6376 86.2084 83.302 86.2084 82.8859C86.2084 82.4698 86.0738 82.1208 85.8047 81.8658C85.549 81.6108 85.1992 81.4765 84.7686 81.4765H82.7503Z" fill="white"/>
<path d="M45.2504 113.772C45.2504 113.772 45.21 113.826 45.2235 113.852C45.2369 113.879 45.2638 113.893 45.3042 113.893H50.5921C50.5921 113.893 50.7132 113.92 50.7536 113.96C50.8074 114 50.8343 114.054 50.8343 114.121V116.013C50.8343 116.013 50.8074 116.134 50.7536 116.175C50.7132 116.215 50.6594 116.242 50.5921 116.242H41.8193C41.752 116.242 41.6847 116.215 41.6443 116.175C41.604 116.134 41.5771 116.081 41.5771 116.013V114.215C41.5771 114.094 41.6174 114 41.6982 113.92C42.3306 113.302 42.9899 112.631 43.6492 111.893C44.3085 111.154 44.7256 110.698 44.9005 110.524C45.2638 110.094 45.6271 109.678 46.0039 109.289C47.1879 107.987 47.78 107.007 47.78 106.376C47.78 105.92 47.6185 105.544 47.2956 105.248C46.9727 104.966 46.5555 104.819 46.0308 104.819C45.506 104.819 45.0889 104.966 44.766 105.248C44.4296 105.544 44.2681 105.933 44.2681 106.416V106.899C44.2681 106.899 44.2412 107.02 44.2009 107.06C44.1605 107.101 44.1067 107.128 44.0394 107.128H41.7385C41.7385 107.128 41.6174 107.101 41.5771 107.06C41.5232 107.02 41.4963 106.966 41.4963 106.899V105.987C41.5367 105.289 41.7654 104.671 42.1691 104.121C42.5728 103.584 43.111 103.168 43.7703 102.886C44.4431 102.604 45.1966 102.456 46.0308 102.456C46.9592 102.456 47.7531 102.631 48.4393 102.98C49.1255 103.315 49.6503 103.785 50.0136 104.362C50.3903 104.953 50.5787 105.597 50.5787 106.309C50.5787 106.859 50.4441 107.409 50.1616 107.987C49.8925 108.564 49.4888 109.181 48.9371 109.839C48.5335 110.336 48.1029 110.846 47.632 111.342C47.161 111.839 46.4748 112.55 45.5464 113.477L45.2504 113.772ZM57.1718 116.456C55.7321 116.456 54.6018 116.054 53.7811 115.262C52.9468 114.47 52.5297 113.383 52.5297 112V106.859C52.5297 105.503 52.9468 104.443 53.7811 103.651C54.6018 102.859 55.7321 102.456 57.1718 102.456C58.6115 102.456 59.7283 102.859 60.576 103.651C61.4102 104.443 61.8273 105.503 61.8273 106.859V112C61.8273 113.383 61.4102 114.47 60.576 115.262C59.7283 116.054 58.5981 116.456 57.1718 116.456ZM57.1718 114.107C57.7504 114.107 58.2213 113.933 58.5577 113.571C58.9075 113.208 59.0825 112.738 59.0825 112.134V106.779C59.0825 106.188 58.9075 105.718 58.5577 105.356C58.2213 104.993 57.7504 104.819 57.1718 104.819C56.5932 104.819 56.1357 104.993 55.7994 105.356C55.4495 105.718 55.2746 106.188 55.2746 106.779V112.134C55.2746 112.738 55.4495 113.208 55.7994 113.571C56.1357 113.933 56.5932 114.107 57.1718 114.107ZM67.2902 113.772C67.2902 113.772 67.2633 113.826 67.2902 113.852C67.2902 113.879 67.3306 113.893 67.3709 113.893H72.6589C72.6589 113.893 72.78 113.92 72.8203 113.96C72.8607 114 72.8876 114.054 72.8876 114.121V116.013C72.8876 116.013 72.8607 116.134 72.8203 116.175C72.78 116.215 72.7262 116.242 72.6589 116.242H63.8725C63.8725 116.242 63.7514 116.215 63.7111 116.175C63.6707 116.134 63.6438 116.081 63.6438 116.013V114.215C63.6438 114.094 63.6842 114 63.7515 113.92C64.3973 113.302 65.0432 112.631 65.7025 111.893C66.3618 111.154 66.7789 110.698 66.9538 110.524C67.3171 110.094 67.6939 109.678 68.0706 109.289C69.2547 107.987 69.8467 107.007 69.8467 106.376C69.8467 105.92 69.6852 105.544 69.3623 105.248C69.0259 104.966 68.6088 104.819 68.0841 104.819C67.5593 104.819 67.1422 104.966 66.8193 105.248C66.4963 105.544 66.3349 105.933 66.3349 106.416V106.899C66.3349 106.899 66.308 107.02 66.2676 107.06C66.2272 107.101 66.16 107.128 66.0927 107.128H63.7918C63.7918 107.128 63.6707 107.101 63.6304 107.06C63.59 107.02 63.5631 106.966 63.5631 106.899V105.987C63.6034 105.289 63.8187 104.671 64.2224 104.121C64.626 103.584 65.1643 103.168 65.837 102.886C66.5098 102.604 67.2633 102.456 68.0841 102.456C69.0125 102.456 69.8063 102.631 70.4926 102.98C71.1788 103.315 71.717 103.785 72.0803 104.362C72.4436 104.953 72.632 105.597 72.632 106.309C72.632 106.859 72.4974 107.409 72.2283 107.987C71.9457 108.564 71.5421 109.181 70.9904 109.839C70.5868 110.336 70.1562 110.846 69.6853 111.342C69.2143 111.839 68.5281 112.55 67.5997 113.477L67.3037 113.772H67.2902ZM82.71 109.745C82.9657 110.336 83.1002 111.02 83.1002 111.799C83.1002 112.51 82.9791 113.154 82.7504 113.745C82.4409 114.577 81.9161 115.222 81.1761 115.691C80.4361 116.161 79.5749 116.403 78.5658 116.403C77.5566 116.403 76.7089 116.161 75.9689 115.664C75.2288 115.168 74.6906 114.497 74.3542 113.651C74.1793 113.154 74.0717 112.604 74.0448 112.013C74.0448 111.866 74.1255 111.785 74.2735 111.785H76.5878C76.7358 111.785 76.8166 111.866 76.8166 112.013C76.8704 112.443 76.9377 112.765 77.0319 112.966C77.153 113.302 77.3413 113.571 77.6104 113.758C77.8661 113.946 78.189 114.04 78.5523 114.04C79.2789 114.04 79.7767 113.718 80.0593 113.087C80.2342 112.698 80.3284 112.255 80.3284 111.732C80.3284 111.114 80.2342 110.617 80.0324 110.228C79.7364 109.624 79.2385 109.315 78.5389 109.315C78.3908 109.315 78.2428 109.356 78.0814 109.436C77.9334 109.53 77.745 109.651 77.5163 109.799C77.4624 109.839 77.4086 109.852 77.3682 109.852C77.2875 109.852 77.2337 109.812 77.1933 109.745L76.0362 108.121C76.0362 108.121 75.9958 108.04 75.9958 107.987C75.9958 107.906 76.0227 107.839 76.0765 107.799L79.1713 105.087C79.1713 105.087 79.2116 105.034 79.2116 105.007C79.2116 104.98 79.1847 104.966 79.1443 104.966H74.5561C74.5561 104.966 74.435 104.94 74.3812 104.899C74.3408 104.859 74.3139 104.805 74.3139 104.738V102.846C74.3139 102.846 74.3408 102.725 74.3812 102.685C74.435 102.644 74.4888 102.617 74.5561 102.617H82.6831C82.7504 102.617 82.8176 102.644 82.858 102.685C82.8984 102.725 82.9253 102.779 82.9253 102.846V104.993C82.9253 105.087 82.8849 105.195 82.7907 105.289L80.2342 107.624C80.2342 107.624 80.1939 107.678 80.2073 107.691C80.2073 107.718 80.2342 107.732 80.288 107.732C81.4183 107.96 82.2256 108.631 82.71 109.745Z" fill="#252530"/>
</g>
<defs>
<clipPath id="clip0_5520_3921">
<rect width="125" height="140" fill="white"/>
</clipPath>
</defs>
</svg>
