<svg width="133" height="141" viewBox="0 0 133 141" fill="none" xmlns="http://www.w3.org/2000/svg">
<path d="M63.5352 12.9535H68.5532C100.213 12.9535 125.885 38.816 125.885 70.7271V82.2264C125.885 114.137 100.213 140 68.5532 140H63.5352C31.8751 140 6.20312 114.137 6.20312 82.2264V70.7271C6.20312 38.816 31.8751 12.9535 63.5352 12.9535Z" fill="#EFEFEF" stroke="#B1B1B1"/>
<path d="M9.02476 1H123.064C124.618 1 125.885 2.27105 125.885 3.84699V65.8441C125.885 67.42 124.618 68.6911 123.064 68.6911H9.02476C7.46999 68.6911 6.20312 67.42 6.20312 65.8441V3.84699C6.20312 2.27105 7.46999 1 9.02476 1Z" fill="#EFEFEF" stroke="#B1B1B1"/>
<mask id="mask0_5369_6819" style="mask-type:luminance" maskUnits="userSpaceOnUse" x="23" y="14" width="86" height="22">
<path d="M108.81 14.7605H23.272V35.727H108.81V14.7605Z" fill="white"/>
</mask>
<g mask="url(#mask0_5369_6819)">
<path d="M45.7523 22.1956H54.4064V23.8033H51.0017V32.8701H49.1333V23.8033H45.7405L45.7523 22.1956ZM54.0327 25.1421H55.6283V26.6363H55.6579C55.7172 26.4211 55.8122 26.2239 55.9545 26.0267C56.0969 25.8294 56.2689 25.6442 56.4824 25.4888C56.6841 25.3154 56.9095 25.1899 57.1645 25.0883C57.4077 24.9867 57.6628 24.9329 57.9178 24.9329C58.1195 24.9329 58.2619 24.9449 58.333 24.9449C58.4042 24.9568 58.4873 24.9748 58.5584 24.9748V26.6124C58.4457 26.5825 58.3152 26.5706 58.1907 26.5526C58.0602 26.5407 57.9475 26.5227 57.8229 26.5227C57.5382 26.5227 57.2654 26.5825 57.0103 26.6901C56.7553 26.8037 56.5417 26.977 56.3401 27.1862C56.1562 27.4133 55.996 27.6822 55.8833 28.011C55.7706 28.3397 55.7113 28.7222 55.7113 29.1465V32.8163H54.003L54.0327 25.1302V25.1421ZM66.4058 32.8701H64.7213V31.7883H64.6916C64.4781 32.1887 64.1637 32.4876 63.7485 32.7266C63.3333 32.9657 62.9062 33.0793 62.4791 33.0793C61.4649 33.0793 60.7234 32.8342 60.2667 32.3262C59.81 31.8301 59.5846 31.0591 59.5846 30.049V25.1361H61.2928V29.8757C61.2928 30.5571 61.4233 31.0412 61.6903 31.3101C61.9453 31.597 62.319 31.7345 62.7876 31.7345C63.1435 31.7345 63.446 31.6807 63.6832 31.5671C63.9264 31.4536 64.1281 31.3101 64.2705 31.1249C64.4247 30.9396 64.5255 30.7125 64.5967 30.4555C64.6679 30.1985 64.6975 29.9116 64.6975 29.6127V25.1302H66.4058V32.8581H66.3939L66.4058 32.8701ZM69.3122 30.3957C69.3715 30.8918 69.5554 31.2324 69.8816 31.4476C70.2079 31.6448 70.6112 31.7464 71.062 31.7464C71.2162 31.7464 71.406 31.7345 71.6018 31.7046C71.8034 31.6747 71.9992 31.6329 72.1712 31.5612C72.3551 31.4894 72.4974 31.3878 72.6161 31.2504C72.7347 31.1129 72.7881 30.9396 72.7703 30.7244C72.7584 30.5093 72.6872 30.324 72.5271 30.1805C72.3729 30.0371 72.1831 29.9355 71.9577 29.8399C71.7323 29.7562 71.4594 29.6845 71.1569 29.6247C70.8603 29.5649 70.5578 29.4992 70.2435 29.4275C69.9291 29.3557 69.6147 29.2721 69.3182 29.1705C69.0216 29.0689 68.7606 28.9433 68.5174 28.7581C68.292 28.5907 68.0903 28.3755 67.9598 28.1006C67.8175 27.8317 67.7463 27.5149 67.7463 27.1204C67.7463 26.6901 67.8471 26.3494 68.0607 26.0685C68.2624 25.7816 68.5293 25.5545 68.8436 25.3872C69.158 25.2138 69.5139 25.0883 69.8994 25.0166C70.285 24.9449 70.6527 24.915 70.9968 24.915C71.3942 24.915 71.7797 24.9568 72.1356 25.0405C72.4915 25.1242 72.8355 25.2557 73.1202 25.4529C73.4168 25.6382 73.66 25.8952 73.8498 26.194C74.0515 26.4929 74.1642 26.8634 74.2176 27.2878H72.4381C72.3551 26.8754 72.1653 26.6064 71.8806 26.463C71.584 26.3195 71.2518 26.2478 70.8663 26.2478C70.7536 26.2478 70.5934 26.2598 70.4392 26.2777C70.2672 26.3076 70.1248 26.3375 69.9706 26.3913C69.8283 26.451 69.6978 26.5347 69.6029 26.6303C69.502 26.7319 69.4487 26.8754 69.4487 27.0427C69.4487 27.2579 69.5198 27.4133 69.6622 27.5388C69.8045 27.6643 69.9884 27.7659 70.2316 27.8675C70.457 27.9512 70.7299 28.0229 71.0324 28.0827C71.3289 28.1425 71.6433 28.2082 71.9577 28.2799C72.272 28.3516 72.5686 28.4353 72.8711 28.5369C73.1677 28.6385 73.4405 28.764 73.6719 28.9493C73.8973 29.1226 74.0989 29.3318 74.2413 29.5888C74.3836 29.8458 74.4548 30.1746 74.4548 30.5451C74.4548 30.9993 74.354 31.3878 74.1405 31.7106C73.9269 32.0214 73.6541 32.2963 73.3278 32.4935C73.0016 32.6908 72.6161 32.8342 72.2187 32.9358C71.8035 33.0195 71.406 33.0793 71.0086 33.0793C70.5222 33.0793 70.0655 33.0195 69.6563 32.9059C69.241 32.7924 68.8733 32.6191 68.5708 32.4099C68.2742 32.1828 68.031 31.9138 67.859 31.5671C67.687 31.2384 67.5862 30.844 67.5743 30.3718H69.3004V30.3897H69.3122V30.3957ZM74.9412 25.1421H76.2402V22.8052H77.9485V25.1242H79.4907V26.3913H77.9485V30.5152C77.9485 30.7005 77.9603 30.844 77.9781 30.9874C77.99 31.1129 78.0374 31.2265 78.079 31.3161C78.1383 31.3998 78.2213 31.4715 78.3222 31.5134C78.4349 31.5552 78.5772 31.5851 78.7789 31.5851C78.8916 31.5851 79.0221 31.5851 79.1348 31.5731C79.2475 31.5612 79.378 31.5432 79.4907 31.5134V32.8342C79.3068 32.8641 79.1229 32.8761 78.9331 32.894C78.7492 32.9239 78.5772 32.9239 78.3755 32.9239C77.9188 32.9239 77.5629 32.882 77.2901 32.7984C77.0172 32.7147 76.8037 32.5832 76.6495 32.4278C76.4953 32.2545 76.3944 32.0572 76.3351 31.8182C76.2758 31.5731 76.2521 31.2743 76.2343 30.9635V26.4092H74.9353V25.1122V25.1421H74.9412ZM80.6888 25.1421H82.3022V26.194H82.3318C82.575 25.7398 82.9013 25.423 83.3283 25.2258C83.7554 25.0285 84.2121 24.9269 84.7282 24.9269C85.3391 24.9269 85.867 25.0285 86.3237 25.2557C86.7805 25.4708 87.1482 25.7517 87.4507 26.1402C87.7473 26.5108 87.9786 26.9531 88.121 27.4491C88.2633 27.9452 88.3464 28.4891 88.3464 29.0449C88.3464 29.6008 88.2752 30.067 88.1447 30.5511C88.0024 31.0352 87.8007 31.4775 87.5338 31.8481C87.2609 32.2186 86.9228 32.5175 86.4958 32.7446C86.0687 32.9717 85.5823 33.0852 85.0129 33.0852C84.7697 33.0852 84.5146 33.0554 84.2714 33.0135C84.0283 32.9717 83.7851 32.9 83.5597 32.7984C83.3343 32.6968 83.1148 32.5712 82.9309 32.4158C82.7293 32.2604 82.575 32.0752 82.4445 31.872H82.4149V35.727H80.7066V25.1361H80.6948L80.6888 25.1421ZM86.6618 29.0151C86.6618 28.6744 86.6203 28.3337 86.5195 28.005C86.4364 27.6763 86.2941 27.3894 86.1043 27.1384C85.9204 26.8813 85.6891 26.6841 85.434 26.5287C85.1612 26.3733 84.8468 26.3016 84.5087 26.3016C83.7969 26.3016 83.2512 26.5467 82.8835 27.0427C82.5276 27.5388 82.3437 28.2082 82.3437 29.033C82.3437 29.4334 82.3852 29.7861 82.4861 30.1148C82.5869 30.4435 82.7115 30.7304 82.9131 30.9695C83.097 31.2145 83.3283 31.3998 83.5953 31.5373C83.8681 31.6807 84.1647 31.7524 84.5206 31.7524C84.918 31.7524 85.2323 31.6687 85.5052 31.5134C85.778 31.358 85.9916 31.1428 86.1754 30.8977C86.3475 30.6407 86.472 30.3598 86.5432 30.0311C86.6144 29.6904 86.6559 29.3617 86.6559 29.021L86.6618 29.0151ZM89.6691 22.1956H91.3774V23.8033H89.6691V22.1956ZM89.6691 25.1421H91.3774V32.8701H89.6691V25.1421ZM92.9077 22.1956H94.616V32.8701H92.9077V22.1956ZM99.8357 33.0852C99.2247 33.0852 98.6672 32.9836 98.1808 32.7745C97.6944 32.5593 97.297 32.2903 96.953 31.9317C96.6267 31.5791 96.3658 31.1368 96.1997 30.6348C96.0277 30.1387 95.9268 29.5829 95.9268 28.9971C95.9268 28.4114 96.0099 27.8735 96.1997 27.3774C96.3717 26.8814 96.6267 26.451 96.953 26.0805C97.2792 25.7219 97.6944 25.4409 98.1808 25.2377C98.6672 25.0405 99.2188 24.9269 99.8357 24.9269C100.453 24.9269 101.004 25.0285 101.491 25.2377C101.977 25.435 102.374 25.7219 102.718 26.0805C103.045 26.4331 103.3 26.8754 103.472 27.3774C103.644 27.8735 103.745 28.4174 103.745 28.9971C103.745 29.5769 103.661 30.1387 103.472 30.6348C103.288 31.1308 103.045 31.5612 102.718 31.9317C102.392 32.2903 101.977 32.5712 101.491 32.7745C101.004 32.9717 100.464 33.0852 99.8357 33.0852ZM99.8357 31.7345C100.209 31.7345 100.547 31.6508 100.82 31.4894C101.105 31.334 101.319 31.1189 101.502 30.8619C101.686 30.6049 101.817 30.306 101.9 29.9952C101.983 29.6665 102.03 29.3378 102.03 28.9971C102.03 28.6565 101.989 28.3397 101.9 28.0169C101.817 27.6882 101.686 27.4013 101.502 27.1503C101.319 26.8933 101.087 26.6961 100.82 26.5407C100.536 26.3853 100.209 26.2956 99.8357 26.2956C99.462 26.2956 99.1239 26.3793 98.8511 26.5407C98.5663 26.6961 98.3528 26.9112 98.1689 27.1503C97.9851 27.4073 97.8546 27.6942 97.7715 28.0169C97.6885 28.3457 97.641 28.6744 97.641 28.9971C97.641 29.3199 97.6825 29.6665 97.7715 29.9952C97.8546 30.324 97.9851 30.6109 98.1689 30.8619C98.3528 31.1189 98.5841 31.334 98.8511 31.4894C99.1358 31.6628 99.462 31.7345 99.8357 31.7345ZM104.255 25.1421H105.554V22.8052H107.262V25.1242H108.804V26.3913H107.262V30.5152C107.262 30.7005 107.274 30.844 107.292 30.9874C107.303 31.1129 107.351 31.2265 107.392 31.3161C107.452 31.3998 107.535 31.4715 107.636 31.5134C107.748 31.5552 107.891 31.5851 108.092 31.5851C108.205 31.5851 108.336 31.5851 108.448 31.5731C108.561 31.5612 108.691 31.5432 108.804 31.5134V32.8342C108.62 32.8641 108.43 32.8761 108.247 32.894C108.063 32.9239 107.891 32.9239 107.689 32.9239C107.232 32.9239 106.876 32.882 106.604 32.7984C106.331 32.7147 106.117 32.5832 105.963 32.4278C105.803 32.2545 105.708 32.0572 105.649 31.8182C105.589 31.5731 105.565 31.2743 105.548 30.9635V26.4092H104.249V25.1122V25.1421H104.255Z" fill="#040036"/>
<path d="M43.7594 22.1955H35.9298L33.5217 14.7664L31.0957 22.1955L23.2661 22.1835L29.595 26.7797L27.169 34.2088L33.4979 29.6127L39.8268 34.2088L37.4187 26.7797L43.7476 22.1955H43.7594Z" fill="#00B67A"/>
<path d="M37.9703 28.4533L37.4306 26.7738L33.5217 29.6068L37.9703 28.4533Z" fill="#005128"/>
</g>
<path d="M132.33 74.4999H0V51.4999H130.487H132.33V74.4999Z" fill="#00B67A"/>
<path d="M126.36 48.5C128.354 49.5 130.336 50.5 132.33 51.5H126.36V48.5Z" fill="#00935E"/>
<path d="M5.71108 48.5C3.81043 49.5 1.90065 50.5 0 51.5C1.90065 51.5 3.81043 51.5 5.71108 51.5V48.5Z" fill="#00935E"/>
<path d="M31.0957 68.8623V57.2793H39.6193V59.2397H33.4208V61.8097H39.1922V63.7581H33.4208V66.9079H39.8387V68.8563H31.0957V68.8623Z" fill="#040036"/>
<path d="M40.7344 68.8623L43.7358 64.5411L40.859 60.4709H43.546L45.017 62.778L46.571 60.4709H49.1572L46.3338 64.4455L49.4122 68.8623H46.7075L45.017 66.2624L43.3087 68.8623H40.7285H40.7344Z" fill="#040036"/>
<path d="M57.9831 62.9573L55.8122 63.3517C55.741 62.9154 55.5749 62.5867 55.3139 62.3656C55.0529 62.1444 54.7208 62.0309 54.3056 62.0309C53.7539 62.0309 53.3209 62.2221 52.9947 62.6046C52.6685 62.9872 52.5024 63.6267 52.5024 64.5232C52.5024 65.5213 52.6685 66.2206 53.0006 66.633C53.3328 67.0454 53.7777 67.2486 54.3352 67.2486C54.7564 67.2486 55.0945 67.1291 55.3614 66.89C55.6283 66.6509 55.8181 66.2385 55.9249 65.6528L58.0899 66.0233C57.8645 67.0215 57.4315 67.7805 56.7968 68.2885C56.1562 68.7966 55.3021 69.0536 54.2344 69.0536C53.0184 69.0536 52.0457 68.6651 51.322 67.8941C50.5984 67.1231 50.2366 66.0473 50.2366 64.6786C50.2366 63.3099 50.5984 62.2161 51.328 61.4451C52.0575 60.6741 53.0362 60.2856 54.2759 60.2856C55.2902 60.2856 56.0969 60.5068 56.696 60.9431C57.2951 61.3854 57.7221 62.0548 57.9831 62.9513V62.9573Z" fill="#040036"/>
<path d="M64.4722 66.1967L66.6668 66.5672C66.3821 67.3801 65.9373 67.9957 65.3322 68.42C64.7213 68.8444 63.9621 69.0536 63.0486 69.0536C61.6013 69.0536 60.5277 68.5754 59.8338 67.6251C59.2821 66.8601 59.0093 65.8978 59.0093 64.7324C59.0093 63.3398 59.3711 62.252 60.0888 61.4631C60.8065 60.6741 61.72 60.2797 62.8232 60.2797C64.0629 60.2797 65.0416 60.6921 65.7534 61.5169C66.4711 62.3417 66.8092 63.6028 66.7795 65.3061H61.2573C61.2751 65.9636 61.4531 66.4776 61.7911 66.8422C62.1292 67.2067 62.5563 67.392 63.0605 67.392C63.4045 67.392 63.6952 67.2964 63.9324 67.1051C64.1697 66.9139 64.3476 66.6091 64.4663 66.1907L64.4722 66.1967ZM64.5967 63.9554C64.579 63.3099 64.4188 62.8258 64.1044 62.4911C63.7901 62.1564 63.4104 61.989 62.9597 61.989C62.4792 61.989 62.0818 62.1683 61.7674 62.521C61.4531 62.8736 61.2988 63.3517 61.3048 63.9614H64.5967V63.9554Z" fill="#040036"/>
<path d="M68.5825 68.8623V57.2793H70.7831V68.8623H68.5825Z" fill="#040036"/>
<path d="M73.0432 68.8623V57.2793H75.2438V68.8623H73.0432Z" fill="#040036"/>
<path d="M82.3262 66.1967L84.5208 66.5672C84.2361 67.3801 83.7913 67.9957 83.1862 68.42C82.5753 68.8444 81.8161 69.0536 80.9026 69.0536C79.4553 69.0536 78.3817 68.5754 77.6878 67.6251C77.1361 66.8601 76.8633 65.8978 76.8633 64.7324C76.8633 63.3398 77.2251 62.252 77.9428 61.4631C78.6605 60.6741 79.574 60.2797 80.6772 60.2797C81.9169 60.2797 82.8956 60.6921 83.6074 61.5169C84.3251 62.3417 84.6632 63.6028 84.6335 65.3061H79.1113C79.1291 65.9636 79.3071 66.4776 79.6451 66.8422C79.9832 67.2067 80.4103 67.392 80.9145 67.392C81.2585 67.392 81.5492 67.2964 81.7864 67.1051C82.0237 66.9139 82.2016 66.6091 82.3202 66.1907L82.3262 66.1967ZM82.4507 63.9554C82.4329 63.3099 82.2728 62.8258 81.9584 62.4911C81.6441 62.1564 81.2644 61.989 80.8137 61.989C80.3332 61.989 79.9358 62.1683 79.6214 62.521C79.3071 62.8736 79.1528 63.3517 79.1588 63.9614H82.4507V63.9554Z" fill="#040036"/>
<path d="M94.005 68.8623H91.8044V64.5829C91.8044 63.6745 91.757 63.0888 91.6621 62.8258C91.5672 62.5628 91.4129 62.3536 91.2053 62.2042C90.9977 62.0548 90.7367 61.9831 90.4402 61.9831C90.0606 61.9831 89.7165 62.0906 89.414 62.2998C89.1115 62.509 88.9039 62.7899 88.7912 63.1366C88.6785 63.4832 88.6251 64.1287 88.6251 65.0671V68.8683H86.4246V60.4769H88.4709V61.7081C89.1946 60.7578 90.1139 60.2856 91.2172 60.2856C91.7036 60.2856 92.1484 60.3753 92.5518 60.5486C92.9551 60.7279 93.2576 60.9491 93.4652 61.224C93.6728 61.4989 93.8152 61.8097 93.8982 62.1564C93.9813 62.503 94.0228 62.9991 94.0228 63.6506V68.8623H94.005Z" fill="#040036"/>
<path d="M100.055 60.4769V62.2461H98.5487V65.6289C98.5487 66.3162 98.5605 66.7107 98.5902 66.8243C98.6199 66.9378 98.6851 67.0335 98.7859 67.1052C98.8868 67.1769 99.0113 67.2187 99.1596 67.2187C99.3613 67.2187 99.6579 67.147 100.043 67.0036L100.233 68.7249C99.7231 68.946 99.1418 69.0596 98.4953 69.0596C98.0979 69.0596 97.742 68.9938 97.4217 68.8564C97.1014 68.7249 96.8701 68.5456 96.7218 68.3364C96.5735 68.1272 96.4667 67.8343 96.4133 67.4698C96.3659 67.2128 96.3422 66.6928 96.3422 65.9038V62.2461H95.3279V60.4769H96.3422V58.8094L98.5546 57.5125V60.4769H100.061H100.055Z" fill="#040036"/>
<path d="M56.4885 85.2388H40.7107V101.137H56.4885V85.2388Z" fill="#00B67A"/>
<path d="M54.1218 91.9327H49.9045L48.6055 87.8625L47.3005 91.9327H43.0833L46.4939 94.443L45.1889 98.5132L48.5995 95.9969L52.0101 98.5132L50.7112 94.443L54.1218 91.9327Z" fill="white"/>
<path d="M51.0018 95.3628L50.7111 94.443L48.6055 95.9958L51.0018 95.3628Z" fill="#00B67A"/>
<path d="M39.0497 85.2388H23.272V101.137H39.0497V85.2388Z" fill="#00B67A"/>
<path d="M36.683 91.9327H32.4657L31.1667 87.8625L29.8618 91.9327H25.6445L29.0551 94.443L27.7502 98.5132L31.1608 95.9969L34.5714 98.5132L33.2724 94.443L36.683 91.9327Z" fill="white"/>
<path d="M33.5633 95.3628L33.2727 94.443L31.167 95.9958L33.5633 95.3628Z" fill="#00B67A"/>
<path d="M73.9269 85.2388H58.1492V101.137H73.9269V85.2388Z" fill="#00B67A"/>
<path d="M71.5605 91.9327H67.3432L66.0442 87.8625L64.7393 91.9327H60.522L63.9326 94.443L62.6277 98.5132L66.0383 95.9969L69.4489 98.5132L68.1499 94.443L71.5605 91.9327Z" fill="white"/>
<path d="M68.4403 95.3628L68.1496 94.443L66.0439 95.9958L68.4403 95.3628Z" fill="#00B67A"/>
<path d="M91.3654 85.2388H75.5876V101.137H91.3654V85.2388Z" fill="#00B67A"/>
<path d="M89.0048 91.9327H84.7875L83.4885 87.8625L82.1836 91.9327H77.9663L81.3769 94.443L80.072 98.5132L83.4826 95.9969L86.8932 98.5132L85.5942 94.443L89.0048 91.9327Z" fill="white"/>
<path d="M85.8849 95.3628L85.5942 94.443L83.4885 95.9958L85.8849 95.3628Z" fill="#00B67A"/>
<path d="M108.81 85.2388H93.0322V101.137H108.81V85.2388Z" fill="#00B67A"/>
<path d="M108.81 85.2388H100.921V101.137H108.81V85.2388Z" fill="#B1B1B1"/>
<path d="M106.443 91.9327H102.226L100.927 87.8625L99.6221 91.9327H95.4048L98.8154 94.443L97.5105 98.5132L100.921 95.9969L104.332 98.5132L103.033 94.443L106.443 91.9327Z" fill="white"/>
<path d="M103.323 95.3628L103.033 94.443L100.927 95.9958L103.323 95.3628Z" fill="#DFDFE9"/>
<path d="M34.4529 116.533V111.549H36.3094C36.6891 111.549 36.9916 111.596 37.217 111.698C37.4424 111.8 37.6262 111.955 37.7567 112.164C37.8872 112.373 37.9525 112.595 37.9525 112.822C37.9525 113.037 37.8931 113.234 37.7804 113.425C37.6677 113.617 37.4898 113.766 37.2585 113.88C37.5551 113.969 37.7864 114.119 37.9465 114.334C38.1067 114.549 38.1897 114.8 38.1897 115.087C38.1897 115.32 38.1423 115.535 38.0414 115.738C37.9406 115.942 37.822 116.091 37.6796 116.204C37.5373 116.312 37.3534 116.396 37.1398 116.45C36.9263 116.503 36.6594 116.533 36.3391 116.533H34.4529ZM35.1053 113.64H36.173C36.4637 113.64 36.6713 113.623 36.7958 113.581C36.9619 113.533 37.0865 113.449 37.1695 113.33C37.2525 113.21 37.2941 113.067 37.2941 112.893C37.2941 112.72 37.2525 112.583 37.1754 112.457C37.0983 112.332 36.9856 112.242 36.8373 112.2C36.6891 112.152 36.4399 112.128 36.084 112.128H35.0935V113.634L35.1053 113.64ZM35.1053 115.942H36.3391C36.5526 115.942 36.7009 115.936 36.784 115.918C36.9322 115.888 37.0627 115.846 37.1636 115.78C37.2644 115.714 37.3474 115.625 37.4127 115.505C37.4779 115.386 37.5135 115.242 37.5135 115.087C37.5135 114.902 37.4661 114.74 37.3712 114.603C37.2763 114.465 37.1458 114.37 36.9797 114.316C36.8136 114.262 36.5704 114.232 36.2561 114.232H35.1113V115.947L35.1053 115.942Z" fill="#040036"/>
<path d="M41.3513 116.085C41.1259 116.276 40.9065 116.414 40.6989 116.491C40.4913 116.569 40.2659 116.611 40.0286 116.611C39.6312 116.611 39.3346 116.515 39.1211 116.318C38.9075 116.121 38.8008 115.876 38.8008 115.577C38.8008 115.398 38.8423 115.236 38.9194 115.093C38.9965 114.949 39.1033 114.83 39.2338 114.74C39.3643 114.65 39.5066 114.585 39.6727 114.537C39.7913 114.507 39.9693 114.477 40.2125 114.447C40.7048 114.387 41.0666 114.316 41.2979 114.238C41.2979 114.154 41.2979 114.101 41.2979 114.077C41.2979 113.826 41.2386 113.652 41.1259 113.551C40.9717 113.413 40.7404 113.342 40.4319 113.342C40.1472 113.342 39.9337 113.389 39.7973 113.491C39.6608 113.593 39.56 113.772 39.4948 114.029L38.9016 113.945C38.955 113.688 39.044 113.479 39.1685 113.324C39.2931 113.168 39.471 113.043 39.7083 112.959C39.9396 112.875 40.2125 112.833 40.5209 112.833C40.8293 112.833 41.0785 112.869 41.2683 112.941C41.4581 113.013 41.6004 113.102 41.6894 113.216C41.7784 113.324 41.8436 113.467 41.8792 113.634C41.897 113.736 41.9089 113.927 41.9089 114.202V115.021C41.9089 115.589 41.9207 115.947 41.9504 116.103C41.9741 116.252 42.0275 116.396 42.1046 116.539H41.4699C41.4047 116.414 41.3691 116.264 41.3454 116.091L41.3513 116.085ZM41.2979 114.716C41.0785 114.806 40.7463 114.884 40.3074 114.949C40.0583 114.985 39.8803 115.027 39.7795 115.069C39.6786 115.117 39.5956 115.182 39.5422 115.266C39.4888 115.356 39.4592 115.451 39.4592 115.559C39.4592 115.72 39.5185 115.858 39.6431 115.965C39.7676 116.073 39.9456 116.127 40.1828 116.127C40.4201 116.127 40.6277 116.073 40.8056 115.971C40.9895 115.87 41.12 115.726 41.209 115.547C41.2742 115.409 41.3098 115.206 41.3098 114.937V114.71L41.2979 114.716Z" fill="#040036"/>
<path d="M42.6146 115.457L43.2137 115.362C43.2492 115.607 43.3441 115.792 43.4984 115.918C43.6526 116.049 43.8661 116.109 44.1449 116.109C44.4237 116.109 44.6313 116.049 44.7677 115.935C44.9041 115.822 44.9694 115.684 44.9694 115.535C44.9694 115.398 44.9101 115.29 44.7914 115.206C44.7084 115.152 44.5008 115.081 44.1686 114.997C43.7238 114.884 43.4153 114.788 43.2433 114.704C43.0713 114.621 42.9408 114.507 42.8518 114.358C42.7629 114.208 42.7154 114.047 42.7154 113.873C42.7154 113.712 42.751 113.563 42.8281 113.425C42.8993 113.288 43.0001 113.174 43.1247 113.085C43.2196 113.013 43.3501 112.953 43.5102 112.905C43.6704 112.857 43.8483 112.833 44.0381 112.833C44.3169 112.833 44.566 112.875 44.7796 112.959C44.9931 113.043 45.1473 113.15 45.2482 113.288C45.349 113.425 45.4202 113.616 45.4558 113.85L44.8626 113.933C44.8329 113.748 44.7558 113.605 44.6253 113.497C44.4949 113.395 44.311 113.342 44.0797 113.342C43.8009 113.342 43.5992 113.389 43.4806 113.479C43.3619 113.575 43.3026 113.682 43.3026 113.808C43.3026 113.885 43.3263 113.957 43.3738 114.023C43.4213 114.089 43.4984 114.142 43.6051 114.184C43.6644 114.208 43.8424 114.256 44.1449 114.34C44.572 114.453 44.8745 114.549 45.0465 114.627C45.2185 114.698 45.349 114.806 45.4439 114.949C45.5388 115.093 45.5922 115.266 45.5922 115.475C45.5922 115.684 45.5329 115.87 45.4142 116.049C45.2956 116.228 45.1236 116.372 44.9041 116.467C44.6787 116.569 44.4296 116.617 44.1449 116.617C43.6763 116.617 43.3263 116.521 43.0772 116.324C42.834 116.127 42.6798 115.84 42.6086 115.457H42.6146Z" fill="#040036"/>
<path d="M48.7716 115.368L49.4003 115.445C49.2995 115.816 49.1156 116.103 48.8487 116.306C48.5818 116.509 48.2377 116.611 47.8225 116.611C47.3006 116.611 46.8854 116.449 46.5769 116.121C46.2685 115.798 46.1143 115.338 46.1143 114.752C46.1143 114.166 46.2685 113.67 46.5828 113.336C46.8913 113.001 47.2946 112.833 47.7929 112.833C48.2911 112.833 48.6648 112.995 48.9673 113.33C49.2698 113.658 49.424 114.119 49.424 114.716C49.424 114.752 49.424 114.806 49.424 114.878H46.7489C46.7727 115.272 46.8854 115.577 47.0811 115.792C47.2828 116.001 47.5319 116.109 47.8285 116.109C48.0539 116.109 48.2437 116.049 48.3979 115.929C48.5521 115.81 48.6826 115.625 48.7716 115.362V115.368ZM46.7786 114.376H48.7834C48.7538 114.071 48.6826 113.844 48.5521 113.694C48.3564 113.455 48.1072 113.342 47.7988 113.342C47.52 113.342 47.2828 113.437 47.093 113.622C46.9031 113.814 46.7964 114.065 46.7786 114.376Z" fill="#040036"/>
<path d="M52.4846 116.533V116.079C52.2592 116.438 51.9211 116.617 51.4821 116.617C51.1974 116.617 50.9305 116.539 50.6932 116.378C50.456 116.216 50.2662 115.995 50.1357 115.714C50.0052 115.428 49.9399 115.105 49.9399 114.734C49.9399 114.364 49.9993 114.047 50.1179 113.754C50.2365 113.461 50.4145 113.234 50.6577 113.079C50.8949 112.923 51.1618 112.846 51.4584 112.846C51.6719 112.846 51.8677 112.893 52.0338 112.983C52.1998 113.073 52.3422 113.192 52.443 113.342V111.555H53.048V116.539H52.4846V116.533ZM50.5627 114.728C50.5627 115.188 50.6577 115.535 50.8534 115.768C51.0491 115.995 51.2745 116.115 51.5414 116.115C51.8084 116.115 52.0338 116.007 52.2176 115.786C52.4015 115.565 52.4964 115.23 52.4964 114.782C52.4964 114.286 52.4015 113.927 52.2117 113.694C52.0219 113.461 51.7906 113.348 51.5118 113.348C51.233 113.348 51.0135 113.461 50.8356 113.682C50.6577 113.903 50.5627 114.256 50.5627 114.734V114.728Z" fill="#040036"/>
<path d="M55.6997 114.728C55.6997 114.059 55.8836 113.563 56.2513 113.24C56.5598 112.971 56.9335 112.84 57.3783 112.84C57.8706 112.84 58.274 113.001 58.5883 113.33C58.9027 113.652 59.0569 114.107 59.0569 114.68C59.0569 115.147 58.9858 115.511 58.8493 115.78C58.7129 116.049 58.5112 116.252 58.2443 116.402C57.9774 116.551 57.6927 116.623 57.3783 116.623C56.8741 116.623 56.4708 116.462 56.1624 116.139C55.8539 115.816 55.6997 115.35 55.6997 114.74V114.728ZM56.3225 114.728C56.3225 115.188 56.4233 115.535 56.625 115.768C56.8267 115.995 57.0758 116.115 57.3842 116.115C57.6927 116.115 57.9359 116.001 58.1376 115.768C58.3392 115.535 58.4401 115.182 58.4401 114.71C58.4401 114.262 58.3392 113.927 58.1376 113.694C57.9359 113.461 57.6868 113.348 57.3842 113.348C57.0817 113.348 56.8267 113.461 56.625 113.694C56.4233 113.921 56.3225 114.268 56.3225 114.734V114.728Z" fill="#040036"/>
<path d="M59.7744 116.533V112.923H60.3201V113.437C60.5811 113.043 60.9607 112.84 61.459 112.84C61.6725 112.84 61.8742 112.881 62.0521 112.959C62.2301 113.037 62.3665 113.138 62.4614 113.264C62.5504 113.389 62.6156 113.539 62.6512 113.718C62.6749 113.832 62.6868 114.029 62.6868 114.316V116.539H62.0818V114.34C62.0818 114.089 62.058 113.903 62.0106 113.778C61.9631 113.652 61.8801 113.557 61.7615 113.479C61.6428 113.407 61.5005 113.372 61.3403 113.372C61.0793 113.372 60.8599 113.455 60.6701 113.623C60.4803 113.79 60.3854 114.101 60.3854 114.567V116.539H59.7803L59.7744 116.533Z" fill="#040036"/>
<path d="M68.5234 112.768L67.9184 112.816C67.8651 112.577 67.7879 112.403 67.6871 112.29C67.521 112.116 67.3194 112.027 67.0821 112.027C66.8864 112.027 66.7203 112.08 66.572 112.188C66.3822 112.332 66.228 112.535 66.1212 112.804C66.0085 113.073 65.9551 113.455 65.9492 113.957C66.0975 113.73 66.2754 113.569 66.4889 113.455C66.7025 113.348 66.9219 113.294 67.1533 113.294C67.5566 113.294 67.9006 113.443 68.1913 113.742C68.476 114.041 68.6184 114.429 68.6184 114.907C68.6184 115.218 68.5531 115.511 68.4167 115.78C68.2803 116.049 68.0964 116.252 67.865 116.396C67.6337 116.539 67.3668 116.611 67.0702 116.611C66.5661 116.611 66.1508 116.426 65.8305 116.049C65.5102 115.673 65.3501 115.057 65.3501 114.19C65.3501 113.228 65.528 112.523 65.878 112.086C66.1864 111.704 66.6016 111.513 67.1236 111.513C67.5151 111.513 67.8295 111.62 68.0786 111.841C68.3277 112.063 68.476 112.367 68.5234 112.756V112.768ZM66.0441 114.919C66.0441 115.129 66.0915 115.332 66.1746 115.523C66.2635 115.714 66.3881 115.864 66.5483 115.965C66.7084 116.067 66.8745 116.115 67.0524 116.115C67.3075 116.115 67.527 116.013 67.7168 115.804C67.9006 115.595 67.9955 115.314 67.9955 114.955C67.9955 114.597 67.9066 114.34 67.7227 114.142C67.5388 113.945 67.3134 113.844 67.0346 113.844C66.7559 113.844 66.5245 113.945 66.3347 114.142C66.1449 114.34 66.05 114.603 66.05 114.925L66.0441 114.919Z" fill="#040036"/>
<path d="M69.2173 115.224L69.8579 115.17C69.9053 115.481 70.0121 115.72 70.1901 115.876C70.3621 116.031 70.5697 116.115 70.8129 116.115C71.1035 116.115 71.3526 116.001 71.5543 115.78C71.756 115.559 71.8568 115.26 71.8568 114.895C71.8568 114.531 71.7619 114.274 71.5662 114.071C71.3704 113.867 71.1154 113.766 70.801 113.766C70.6053 113.766 70.4273 113.814 70.2731 113.897C70.1129 113.987 69.9943 114.101 69.8994 114.244L69.33 114.166L69.8104 111.602H72.272V112.188H70.2968L70.0299 113.527C70.3265 113.318 70.6408 113.216 70.9671 113.216C71.4001 113.216 71.7619 113.365 72.0585 113.67C72.355 113.969 72.5033 114.358 72.5033 114.836C72.5033 115.314 72.3728 115.678 72.1119 116.007C71.7916 116.414 71.3586 116.611 70.8129 116.611C70.3621 116.611 69.9943 116.485 69.7096 116.228C69.4249 115.971 69.2647 115.637 69.2232 115.218L69.2173 115.224Z" fill="#040036"/>
<path d="M75.1489 116.533V112.923H75.6946V113.473C75.837 113.216 75.9615 113.049 76.0802 112.965C76.1988 112.881 76.3293 112.84 76.4717 112.84C76.6793 112.84 76.8869 112.905 77.0945 113.037L76.8869 113.605C76.7386 113.515 76.5903 113.473 76.442 113.473C76.3115 113.473 76.1929 113.515 76.0861 113.593C75.9793 113.67 75.9022 113.784 75.8607 113.927C75.7955 114.143 75.7599 114.382 75.7599 114.645V116.539H75.1549L75.1489 116.533Z" fill="#040036"/>
<path d="M79.9119 115.368L80.5407 115.445C80.4398 115.816 80.256 116.103 79.9891 116.306C79.7221 116.509 79.3781 116.611 78.9629 116.611C78.4409 116.611 78.0257 116.449 77.7173 116.121C77.4089 115.798 77.2546 115.338 77.2546 114.752C77.2546 114.166 77.4089 113.67 77.7232 113.336C78.0317 113.001 78.435 112.833 78.9333 112.833C79.4315 112.833 79.8052 112.995 80.1077 113.33C80.4102 113.658 80.5644 114.119 80.5644 114.716C80.5644 114.752 80.5644 114.806 80.5644 114.878H77.8893C77.913 115.272 78.0257 115.577 78.2215 115.792C78.4231 116.001 78.6723 116.109 78.9688 116.109C79.1942 116.109 79.384 116.049 79.5383 115.929C79.6925 115.81 79.823 115.625 79.9119 115.362V115.368ZM77.919 114.376H79.9238C79.8942 114.071 79.823 113.844 79.6925 113.694C79.4967 113.455 79.2476 113.342 78.9392 113.342C78.6604 113.342 78.4231 113.437 78.2333 113.622C78.0435 113.814 77.9368 114.065 77.919 114.376Z" fill="#040036"/>
<path d="M82.2964 116.533L80.9321 112.923H81.5727L82.3438 115.087C82.4269 115.32 82.504 115.565 82.5752 115.816C82.6285 115.625 82.7057 115.397 82.8006 115.129L83.5954 112.923H84.2182L82.8599 116.533H82.2904H82.2964Z" fill="#040036"/>
<path d="M84.7639 112.248V111.543H85.3749V112.248H84.7639ZM84.7639 116.533V112.923H85.3749V116.533H84.7639Z" fill="#040036"/>
<path d="M88.7498 115.368L89.3786 115.445C89.2777 115.816 89.0939 116.103 88.8269 116.306C88.56 116.509 88.216 116.611 87.8008 116.611C87.2788 116.611 86.8636 116.449 86.5552 116.121C86.2468 115.798 86.0925 115.338 86.0925 114.752C86.0925 114.166 86.2468 113.67 86.5611 113.336C86.8696 113.001 87.2729 112.833 87.7711 112.833C88.2694 112.833 88.6431 112.995 88.9456 113.33C89.2481 113.658 89.4023 114.119 89.4023 114.716C89.4023 114.752 89.4023 114.806 89.4023 114.878H86.7272C86.7509 115.272 86.8636 115.577 87.0594 115.792C87.261 116.001 87.5102 116.109 87.8067 116.109C88.0321 116.109 88.2219 116.049 88.3762 115.929C88.5304 115.81 88.6609 115.625 88.7498 115.362V115.368ZM86.7569 114.376H88.7617C88.732 114.071 88.6609 113.844 88.5304 113.694C88.3346 113.455 88.0855 113.342 87.7771 113.342C87.4983 113.342 87.261 113.437 87.0712 113.622C86.8814 113.814 86.7747 114.065 86.7569 114.376Z" fill="#040036"/>
<path d="M90.8022 116.533L89.7048 112.923H90.3336L90.903 115.009L91.1165 115.786C91.1225 115.75 91.1877 115.499 91.3004 115.039L91.8698 112.923H92.4926L93.0324 115.021L93.2103 115.714L93.4179 115.015L94.0348 112.923H94.628L93.5069 116.533H92.8782L92.3088 114.369L92.1723 113.754L91.4487 116.533H90.814H90.8022Z" fill="#040036"/>
<path d="M94.889 115.457L95.4881 115.362C95.5237 115.607 95.6186 115.792 95.7728 115.918C95.927 116.049 96.1405 116.109 96.4193 116.109C96.6981 116.109 96.9057 116.049 97.0421 115.935C97.1785 115.822 97.2438 115.684 97.2438 115.535C97.2438 115.398 97.1845 115.29 97.0658 115.206C96.9828 115.152 96.7752 115.081 96.443 114.997C95.9982 114.884 95.6897 114.788 95.5177 114.704C95.3457 114.621 95.2152 114.507 95.1262 114.358C95.0373 114.208 94.9898 114.047 94.9898 113.873C94.9898 113.712 95.0254 113.563 95.1025 113.425C95.1737 113.288 95.2745 113.174 95.3991 113.085C95.494 113.013 95.6245 112.953 95.7846 112.905C95.9448 112.857 96.1227 112.833 96.3125 112.833C96.5913 112.833 96.8405 112.875 97.054 112.959C97.2675 113.043 97.4217 113.15 97.5226 113.288C97.6234 113.425 97.6946 113.616 97.7302 113.85L97.137 113.933C97.1074 113.748 97.0303 113.605 96.8998 113.497C96.7693 113.395 96.5854 113.342 96.3541 113.342C96.0753 113.342 95.8736 113.389 95.755 113.479C95.6364 113.575 95.577 113.682 95.577 113.808C95.577 113.885 95.6008 113.957 95.6482 114.023C95.6957 114.089 95.7728 114.142 95.8795 114.184C95.9389 114.208 96.1168 114.256 96.4193 114.34C96.8464 114.453 97.1489 114.549 97.3209 114.627C97.4929 114.698 97.6234 114.806 97.7183 114.949C97.8132 115.093 97.8666 115.266 97.8666 115.475C97.8666 115.684 97.8073 115.87 97.6886 116.049C97.57 116.228 97.398 116.372 97.1785 116.467C96.9531 116.569 96.704 116.617 96.4193 116.617C95.9507 116.617 95.6008 116.521 95.3516 116.324C95.1084 116.127 94.9542 115.84 94.8831 115.457H94.889Z" fill="#040036"/>
<path d="M65.0833 117.525V117.017H98.1335V117.525H65.0833Z" fill="#040036"/>
</svg>
